AdventPro-reg_it.ufo
<glyph name="exclam" format="2">
  <advance width="148" height="962"/>
  <unicode hex="0021"/>
  <outline>
    <contour>
      <point x="183" y="673" type="line" smooth="yes"/>
      <point x="189" y="699"/>
      <point x="203" y="710"/>
      <point x="224" y="710" type="curve" smooth="yes"/>
      <point x="246" y="710"/>
      <point x="255" y="698"/>
      <point x="250" y="674" type="curve" smooth="yes"/>
      <point x="123" y="121" type="line"/>
      <point x="76" y="121" type="line"/>
    </contour>
    <contour>
      <point x="87" y="67" type="curve" smooth="yes"/>
      <point x="110" y="67"/>
      <point x="117" y="50"/>
      <point x="113" y="33" type="curve" smooth="yes"/>
      <point x="108" y="16"/>
      <point x="94" y="0"/>
      <point x="73" y="0" type="curve" smooth="yes"/>
      <point x="50" y="0"/>
      <point x="44" y="19"/>
      <point x="49" y="38" type="curve" smooth="yes"/>
      <point x="54" y="54"/>
      <point x="68" y="67"/>
    </contour>
  </outline>
</glyph>
<glyph name="quotesingle" format="2">
  <advance width="267" height="962"/>
  <unicode hex="0027"/>
  <outline>
    <contour>
      <point x="249" y="704" type="line"/>
      <point x="259" y="750"/>
      <point x="326" y="751"/>
      <point x="316" y="704" type="curve"/>
      <point x="278" y="589" type="line"/>
      <point x="238" y="589" type="line"/>
    </contour>
  </outline>
</glyph>
<glyph name="parenright" format="1">
  <advance width="183" height="962"/>
  <unicode hex="0029"/>
  <outline>
    <contour>
      <point x="210" y="818" type="line"/>
      <point x="272" y="779"/>
      <point x="295" y="728"/>
      <point x="274" y="627" type="curve" smooth="yes"/>
      <point x="156" y="70" type="line" smooth="yes"/>
      <point x="128" y="-58"/>
      <point x="70" y="-81"/>
      <point x="11" y="-120" type="curve"/>
      <point x="0" y="-81" type="line"/>
      <point x="52" y="-49"/>
      <point x="84" y="-1"/>
      <point x="98" y="62" type="curve" smooth="yes"/>
      <point x="139" y="255"/>
      <point x="179" y="444"/>
      <point x="220" y="637" type="curve" smooth="yes"/>
      <point x="233" y="698"/>
      <point x="222" y="748"/>
      <point x="183" y="780" type="curve"/>
    </contour>
  </outline>
</glyph>
<glyph name="asterisk" format="1">
  <advance width="353" height="962"/>
  <unicode hex="002A"/>
  <outline>
    <contour>
      <point x="175" y="627" type="line"/>
      <point x="271" y="587" type="line"/>
      <point x="295" y="700" type="line"/>
      <point x="349" y="700" type="line"/>
      <point x="325" y="587" type="line"/>
      <point x="440" y="627" type="line"/>
      <point x="451" y="579" type="line"/>
      <point x="334" y="541" type="line"/>
      <point x="381" y="451" type="line"/>
      <point x="333" y="419" type="line"/>
      <point x="285" y="516" type="line"/>
      <point x="199" y="419" type="line"/>
      <point x="160" y="451" type="line"/>
      <point x="244" y="541" type="line"/>
      <point x="146" y="579" type="line"/>
    </contour>
  </outline>
</glyph>
<glyph name="plus" format="2">
  <advance width="379" height="962"/>
  <unicode hex="002B"/>
  <outline>
    <contour>
      <point x="331" y="530" type="line"/>
      <point x="304" y="398" type="line"/>
      <point x="433" y="398" type="line"/>
      <point x="421" y="343" type="line"/>
      <point x="292" y="343" type="line"/>
      <point x="263" y="210" type="line"/>
      <point x="204" y="210" type="line"/>
      <point x="232" y="343" type="line"/>
      <point x="101" y="343" type="line"/>
      <point x="113" y="398" type="line"/>
      <point x="244" y="398" type="line"/>
      <point x="272" y="530" type="line"/>
    </contour>
  </outline>
</glyph>
<glyph name="hyphen" format="2">
  <advance width="392"/>
  <unicode hex="002D"/>
  <outline>
    <contour>
      <point x="109.781" y="355.994" type="line"/>
      <point x="122.147" y="414.156" type="line"/>
      <point x="442.04" y="414.156" type="line"/>
      <point x="429.674" y="355.994" type="line"/>
    </contour>
  </outline>
</glyph>
<glyph name="one" format="1">
  <advance width="236" height="962"/>
  <unicode hex="0031"/>
  <outline>
    <contour>
      <point x="146" y="622" type="line"/>
      <point x="143" y="622"/>
      <point x="231" y="644"/>
      <point x="288" y="700" type="curve"/>
      <point x="342" y="700" type="line"/>
      <point x="193" y="0" type="line"/>
      <point x="140" y="0" type="line"/>
      <point x="275" y="634" type="line"/>
      <point x="246" y="616"/>
      <point x="185" y="587"/>
      <point x="151" y="583" type="curve"/>
    </contour>
  </outline>
</glyph>
<glyph name="two" format="2">
  <advance width="413" height="962"/>
  <unicode hex="0032"/>
  <outline>
    <contour>
      <point x="168" y="590" type="line"/>
      <point x="216" y="673"/>
      <point x="292" y="709"/>
      <point x="359" y="710" type="curve" smooth="yes"/>
      <point x="444" y="712"/>
      <point x="519" y="652"/>
      <point x="495" y="551" type="curve" smooth="yes"/>
      <point x="487" y="511"/>
      <point x="467" y="463"/>
      <point x="407" y="395" type="curve" smooth="yes"/>
      <point x="106" y="53" type="line"/>
      <point x="391" y="53" type="line"/>
      <point x="379" y="0" type="line"/>
      <point x="29" y="0" type="line"/>
      <point x="41" y="53" type="line"/>
      <point x="366" y="426" type="line" smooth="yes"/>
      <point x="419" y="487"/>
      <point x="427" y="510"/>
      <point x="434" y="541" type="curve" smooth="yes"/>
      <point x="450" y="615"/>
      <point x="404" y="656"/>
      <point x="346" y="656" type="curve" smooth="yes"/>
      <point x="301" y="656"/>
      <point x="251" y="630"/>
      <point x="216" y="571" type="curve"/>
    </contour>
  </outline>
</glyph>
<glyph name="four" format="1">
  <advance width="489" height="962"/>
  <unicode hex="0034"/>
  <outline>
    <contour>
      <point x="332" y="0" type="line"/>
      <point x="408" y="356" type="line"/>
      <point x="92" y="356" type="line"/>
      <point x="359" y="700" type="line"/>
      <point x="418" y="700" type="line"/>
      <point x="201" y="414" type="line"/>
      <point x="420" y="414" type="line"/>
      <point x="481" y="700" type="line"/>
      <point x="538" y="700" type="line"/>
      <point x="478" y="414" type="line"/>
      <point x="550" y="414" type="line"/>
      <point x="517" y="356" type="line"/>
      <point x="465" y="356" type="line"/>
      <point x="389" y="0" type="line"/>
    </contour>
  </outline>
</glyph>
<glyph name="six" format="2">
  <advance width="484" height="962"/>
  <unicode hex="0036"/>
  <outline>
    <contour>
      <point x="410" y="648" type="line" smooth="yes"/>
      <point x="292" y="648"/>
      <point x="207" y="567"/>
      <point x="183" y="455" type="curve" smooth="yes"/>
      <point x="160" y="347" type="line"/>
      <point x="212" y="393"/>
      <point x="270" y="415"/>
      <point x="330" y="415" type="curve" smooth="yes"/>
      <point x="452" y="415"/>
      <point x="526" y="321"/>
      <point x="501" y="203" type="curve" smooth="yes"/>
      <point x="476" y="86"/>
      <point x="362" y="-10"/>
      <point x="243" y="-10" type="curve" smooth="yes"/>
      <point x="123" y="-10"/>
      <point x="49" y="86"/>
      <point x="74" y="203" type="curve" smooth="yes"/>
      <point x="130" y="462" type="line" smooth="yes"/>
      <point x="160" y="602"/>
      <point x="281" y="700"/>
      <point x="425" y="700" type="curve" smooth="yes"/>
      <point x="460" y="700" type="line"/>
      <point x="449" y="648" type="line"/>
    </contour>
    <contour>
      <point x="322" y="360" type="curve" smooth="yes"/>
      <point x="235" y="360"/>
      <point x="148" y="288"/>
      <point x="130" y="203" type="curve" smooth="yes"/>
      <point x="112" y="117"/>
      <point x="168" y="45"/>
      <point x="254" y="45" type="curve" smooth="yes"/>
      <point x="340" y="45"/>
      <point x="427" y="118"/>
      <point x="445" y="203" type="curve" smooth="yes"/>
      <point x="464" y="289"/>
      <point x="407" y="360"/>
    </contour>
  </outline>
</glyph>
<glyph name="seven" format="1">
  <advance width="435" height="962"/>
  <unicode hex="0037"/>
  <outline>
    <contour>
      <point x="100" y="0" type="line"/>
      <point x="37" y="0" type="line"/>
      <point x="492" y="643" type="line"/>
      <point x="163" y="643" type="line"/>
      <point x="175" y="700" type="line"/>
      <point x="567" y="700" type="line"/>
      <point x="555" y="645" type="line"/>
    </contour>
  </outline>
</glyph>
<glyph name="less" format="2">
  <advance width="375" height="962"/>
  <unicode hex="003C"/>
  <outline>
    <contour>
      <point x="102" y="359" type="line"/>
      <point x="438" y="637" type="line"/>
      <point x="470" y="599" type="line"/>
      <point x="174" y="356" type="line"/>
      <point x="361" y="113" type="line"/>
      <point x="320" y="79" type="line"/>
    </contour>
  </outline>
</glyph>
<glyph name="at" format="1">
  <advance width="719" height="962"/>
  <unicode hex="0040"/>
  <outline>
    <contour>
      <point x="786" y="452" type="line"/>
      <point x="761" y="441"/>
      <point x="745" y="419"/>
      <point x="737" y="381" type="curve" smooth="yes"/>
      <point x="693" y="171" type="line" smooth="yes"/>
      <point x="658" y="2"/>
      <point x="490" y="-66"/>
      <point x="327" y="-66" type="curve" smooth="yes"/>
      <point x="153" y="-66"/>
      <point x="37" y="24"/>
      <point x="73" y="196" type="curve" smooth="yes"/>
      <point x="104" y="339" type="line" smooth="yes"/>
      <point x="133" y="478"/>
      <point x="246" y="579"/>
      <point x="408" y="579" type="curve" smooth="yes"/>
      <point x="562" y="579"/>
      <point x="616" y="512"/>
      <point x="610" y="443" type="curve"/>
      <point x="673" y="443" type="line"/>
      <point x="658" y="389" type="line"/>
      <point x="602" y="389" type="line"/>
      <point x="537" y="76" type="line"/>
      <point x="538" y="76"/>
      <point x="438" y="62"/>
      <point x="362" y="61" type="curve" smooth="yes"/>
      <point x="266" y="60"/>
      <point x="173" y="84"/>
      <point x="205" y="234" type="curve" smooth="yes"/>
      <point x="217" y="289" type="line" smooth="yes"/>
      <point x="242" y="406"/>
      <point x="318" y="443"/>
      <point x="391" y="443" type="curve" smooth="yes"/>
      <point x="558" y="443" type="line"/>
      <point x="567" y="497"/>
      <point x="509" y="531"/>
      <point x="405" y="531" type="curve" smooth="yes"/>
      <point x="293" y="531"/>
      <point x="191" y="467"/>
      <point x="164" y="342" type="curve" smooth="yes"/>
      <point x="132" y="190" type="line" smooth="yes"/>
      <point x="101" y="44"/>
      <point x="188" y="-12"/>
      <point x="340" y="-12" type="curve" smooth="yes"/>
      <point x="467" y="-12"/>
      <point x="608" y="35"/>
      <point x="636" y="163" type="curve" smooth="yes"/>
      <point x="678" y="364" type="line" smooth="yes"/>
      <point x="693" y="434"/>
      <point x="719" y="476"/>
      <point x="780" y="493" type="curve"/>
    </contour>
    <contour>
      <point x="377" y="389" type="line" smooth="yes"/>
      <point x="347" y="389"/>
      <point x="291" y="384"/>
      <point x="270" y="286" type="curve" smooth="yes"/>
      <point x="257" y="228" type="line" smooth="yes"/>
      <point x="239" y="142"/>
      <point x="260" y="112"/>
      <point x="353" y="112" type="curve" smooth="yes"/>
      <point x="423" y="112"/>
      <point x="493" y="121"/>
      <point x="492" y="120" type="curve"/>
      <point x="549" y="389" type="line"/>
    </contour>
  </outline>
</glyph>
<glyph name="A" format="1">
  <advance width="547" height="962"/>
  <unicode hex="0041"/>
  <outline>
    <contour>
      <point x="527" y="0" type="line"/>
      <point x="468" y="0" type="line"/>
      <point x="439" y="245" type="line"/>
      <point x="212" y="245" type="line"/>
      <point x="81" y="0" type="line"/>
      <point x="21" y="0" type="line"/>
      <point x="395" y="700" type="line"/>
      <point x="448" y="700" type="line"/>
    </contour>
    <contour>
      <point x="238" y="300" type="line"/>
      <point x="436" y="300" type="line"/>
      <point x="402" y="614" type="line"/>
    </contour>
  </outline>
</glyph>
<glyph name="C" format="2">
  <advance width="423" height="962"/>
  <unicode hex="0043"/>
  <outline>
    <contour>
      <point x="490" y="639" type="line"/>
      <point x="456" y="654"/>
      <point x="422" y="660"/>
      <point x="387" y="660" type="curve" smooth="yes"/>
      <point x="290" y="660"/>
      <point x="222" y="619"/>
      <point x="200" y="514" type="curve" smooth="yes"/>
      <point x="130" y="186" type="line" smooth="yes"/>
      <point x="108" y="81"/>
      <point x="147" y="40"/>
      <point x="247" y="40" type="curve" smooth="yes"/>
      <point x="287" y="40"/>
      <point x="339" y="51"/>
      <point x="399" y="69" type="curve"/>
      <point x="401" y="23" type="line"/>
      <point x="340" y="1"/>
      <point x="284" y="-10"/>
      <point x="233" y="-10" type="curve" smooth="yes"/>
      <point x="106" y="-10"/>
      <point x="45" y="51"/>
      <point x="73" y="184" type="curve" smooth="yes"/>
      <point x="143" y="510" type="line" smooth="yes"/>
      <point x="172" y="650"/>
      <point x="270" y="710"/>
      <point x="380" y="710" type="curve" smooth="yes"/>
      <point x="432" y="710"/>
      <point x="477" y="699"/>
      <point x="515" y="677" type="curve"/>
    </contour>
  </outline>
</glyph>
<glyph name="D" format="2">
  <advance width="497" height="962"/>
  <unicode hex="0044"/>
  <outline>
    <contour>
      <point x="379" y="700" type="line" smooth="yes"/>
      <point x="530" y="700"/>
      <point x="591" y="611"/>
      <point x="562" y="475" type="curve" smooth="yes"/>
      <point x="504" y="200" type="line" smooth="yes"/>
      <point x="476" y="67"/>
      <point x="392" y="0"/>
      <point x="250" y="0" type="curve" smooth="yes"/>
      <point x="41" y="0" type="line"/>
      <point x="190" y="700" type="line"/>
    </contour>
    <contour>
      <point x="243" y="50" type="line" smooth="yes"/>
      <point x="359" y="50"/>
      <point x="426" y="98"/>
      <point x="445" y="190" type="curve" smooth="yes"/>
      <point x="509" y="490" type="line" smooth="yes"/>
      <point x="528" y="576"/>
      <point x="496" y="650"/>
      <point x="378" y="650" type="curve" smooth="yes"/>
      <point x="235" y="650" type="line"/>
      <point x="108" y="50" type="line"/>
    </contour>
  </outline>
</glyph>
<glyph name="F" format="2">
  <advance width="391"/>
  <unicode hex="0046"/>
  <outline>
    <contour>
      <point x="524" y="700" type="line"/>
      <point x="513" y="647" type="line"/>
      <point x="235" y="647" type="line"/>
      <point x="185" y="412" type="line"/>
      <point x="377" y="412" type="line"/>
      <point x="352" y="357" type="line"/>
      <point x="173" y="357" type="line"/>
      <point x="98" y="0" type="line"/>
      <point x="41" y="0" type="line"/>
      <point x="190" y="700" type="line"/>
    </contour>
  </outline>
</glyph>
<glyph name="G" format="2">
  <advance width="479"/>
  <unicode hex="0047"/>
  <outline>
    <contour>
      <point x="489.584" y="637.781" type="line"/>
      <point x="455.678" y="652.823"/>
      <point x="421.859" y="658.84"/>
      <point x="387.764" y="658.84" type="curve" smooth="yes"/>
      <point x="288.487" y="658.84"/>
      <point x="221.157" y="615.719"/>
      <point x="198.984" y="511.428" type="curve" smooth="yes"/>
      <point x="129.907" y="186.521" type="line" smooth="yes"/>
      <point x="110.506" y="95.266"/>
      <point x="142.753" y="44.1232"/>
      <point x="228.994" y="44.1232" type="curve" smooth="yes"/>
      <point x="315.235" y="44.1232"/>
      <point x="413.991" y="98.2744"/>
      <point x="432.753" y="186.521" type="curve" smooth="yes"/>
      <point x="445.118" y="244.683" type="line"/>
      <point x="315.757" y="244.683" type="line"/>
      <point x="307.427" y="299.837" type="line"/>
      <point x="509.993" y="299.837" type="line"/>
      <point x="446.246" y="0" type="line"/>
      <point x="395.103" y="0" type="line"/>
      <point x="401.112" y="47.1316" type="line"/>
      <point x="357.763" y="13.0364"/>
      <point x="285.672" y="-10.028"/>
      <point x="223.498" y="-10.028" type="curve" smooth="yes"/>
      <point x="108.176" y="-10.028"/>
      <point x="46.4608" y="58.1624"/>
      <point x="74.1768" y="188.526" type="curve" smooth="yes"/>
      <point x="141.122" y="503.406" type="line" smooth="yes"/>
      <point x="168.411" y="631.764"/>
      <point x="253.018" y="708.98"/>
      <point x="379.371" y="708.98" type="curve" smooth="yes"/>
      <point x="431.516" y="708.98"/>
      <point x="477.306" y="697.949"/>
      <point x="514.733" y="675.887" type="curve"/>
    </contour>
  </outline>
</glyph>
<glyph name="I" format="2">
  <advance width="187"/>
  <unicode hex="0049"/>
  <outline>
    <contour>
      <point x="159" y="651" type="line"/>
      <point x="169" y="700" type="line"/>
      <point x="293" y="700" type="line"/>
      <point x="144" y="0" type="line"/>
      <point x="88" y="0" type="line"/>
      <point x="226" y="649" type="line"/>
    </contour>
  </outline>
</glyph>
<glyph name="M" format="1">
  <advance width="621" height="962"/>
  <unicode hex="004D"/>
  <outline>
    <contour>
      <point x="246" y="700" type="line"/>
      <point x="327" y="86" type="line"/>
      <point x="671" y="700" type="line"/>
      <point x="727" y="700" type="line"/>
      <point x="578" y="0" type="line"/>
      <point x="522" y="0" type="line"/>
      <point x="636" y="535" type="line"/>
      <point x="339" y="0" type="line"/>
      <point x="278" y="0" type="line"/>
      <point x="211" y="535" type="line"/>
      <point x="98" y="0" type="line"/>
      <point x="41" y="0" type="line"/>
      <point x="190" y="700" type="line"/>
    </contour>
  </outline>
</glyph>
<glyph name="Q" format="2">
  <advance width="492"/>
  <unicode hex="0051"/>
  <outline>
    <component base="O"/>
    <contour>
      <point x="282" y="50" type="line" smooth="yes"/>
      <point x="264" y="-33"/>
      <point x="303" y="-61"/>
      <point x="383" y="-61" type="curve"/>
      <point x="368" y="-108" type="line"/>
      <point x="251" y="-108"/>
      <point x="202" y="-62"/>
      <point x="226" y="51" type="curve" smooth="yes"/>
      <point x="252" y="174" type="line"/>
      <point x="308" y="174" type="line"/>
    </contour>
  </outline>
</glyph>
<glyph name="R" format="1">
  <advance width="510" height="962"/>
  <unicode hex="0052"/>
  <outline>
    <contour>
      <point x="425.586" y="699.954" type="line" smooth="yes"/>
      <point x="552.942" y="699.954"/>
      <point x="612.415" y="644.8"/>
      <point x="575.958" y="473.322" type="curve" smooth="yes"/>
      <point x="551.866" y="360.005"/>
      <point x="509.14" y="295.826"/>
      <point x="439.354" y="264.739" type="curve"/>
      <point x="479.338" y="0" type="line"/>
      <point x="423.182" y="0" type="line"/>
      <point x="385.014" y="249.697" type="line"/>
      <point x="368.116" y="245.686"/>
      <point x="348.85" y="244.683"/>
      <point x="328.794" y="244.683" type="curve" smooth="yes"/>
      <point x="149.292" y="244.683" type="line"/>
      <point x="97.2716" y="0" type="line"/>
      <point x="41.1148" y="0" type="line"/>
      <point x="189.928" y="699.954" type="line"/>
    </contour>
    <contour>
      <point x="345.534" y="299.837" type="line" smooth="yes"/>
      <point x="421.746" y="299.837"/>
      <point x="487.394" y="320.896"/>
      <point x="519.801" y="473.322" type="curve" smooth="yes"/>
      <point x="550.075" y="615.719"/>
      <point x="497.519" y="646.806"/>
      <point x="419.301" y="646.806" type="curve" smooth="yes"/>
      <point x="234.786" y="646.806" type="line"/>
      <point x="161.018" y="299.837" type="line"/>
    </contour>
  </outline>
</glyph>
<glyph name="S" format="2">
  <advance width="530"/>
  <unicode hex="0053"/>
  <outline>
    <contour>
      <point x="555.579" y="622.739" type="line"/>
      <point x="519.154" y="644.8"/>
      <point x="471.146" y="654.828"/>
      <point x="424.015" y="654.828" type="curve" smooth="yes"/>
      <point x="356.827" y="654.828"/>
      <point x="253.286" y="634.772"/>
      <point x="234.951" y="548.532" type="curve" smooth="yes"/>
      <point x="195.509" y="363.014"/>
      <point x="590.857" y="430.201"/>
      <point x="537.557" y="179.501" type="curve" smooth="yes"/>
      <point x="509.202" y="46.1288"/>
      <point x="378.506" y="-12.0336"/>
      <point x="260.175" y="-12.0336" type="curve" smooth="yes"/>
      <point x="166.915" y="-12.0336"/>
      <point x="90.718" y="21.0588"/>
      <point x="44.6844" y="92.2576" type="curve"/>
      <point x="87.2444" y="127.356" type="line"/>
      <point x="117.423" y="71.1988"/>
      <point x="199.486" y="42.1176"/>
      <point x="267.677" y="42.1176" type="curve" smooth="yes"/>
      <point x="361.94" y="42.1176"/>
      <point x="456.496" y="81.2268"/>
      <point x="479.095" y="187.524" type="curve" smooth="yes"/>
      <point x="518.11" y="371.036"/>
      <point x="127.816" y="322.902"/>
      <point x="175.786" y="548.532" type="curve" smooth="yes"/>
      <point x="202.009" y="671.876"/>
      <point x="332.239" y="708.98"/>
      <point x="434.525" y="708.98" type="curve" smooth="yes"/>
      <point x="487.673" y="708.98"/>
      <point x="538.263" y="696.946"/>
      <point x="580.065" y="671.876" type="curve"/>
    </contour>
  </outline>
  <guideline angle="90" x="57.4784" y="0"/>
  <guideline angle="0" x="0" y="586"/>
</glyph>
<glyph name="T" format="1">
  <advance width="417" height="962"/>
  <unicode hex="0054"/>
  <outline>
    <contour>
      <point x="370.803" y="649.814" type="line"/>
      <point x="232.65" y="0" type="line"/>
      <point x="177.496" y="0" type="line"/>
      <point x="315.649" y="649.814" type="line"/>
      <point x="145.173" y="649.814" type="line"/>
      <point x="155.833" y="699.954" type="line"/>
      <point x="557.956" y="699.954" type="line"/>
      <point x="547.296" y="649.814" type="line"/>
    </contour>
  </outline>
</glyph>
<glyph name="c" format="2">
  <advance width="381"/>
  <unicode hex="0063"/>
  <outline>
    <contour>
      <point x="427" y="433" type="line"/>
      <point x="397" y="448"/>
      <point x="355" y="457"/>
      <point x="318" y="458" type="curve" smooth="yes"/>
      <point x="222" y="460"/>
      <point x="168" y="393"/>
      <point x="150" y="306" type="curve" smooth="yes"/>
      <point x="124" y="186" type="line" smooth="yes"/>
      <point x="102" y="81"/>
      <point x="136" y="41"/>
      <point x="236" y="41" type="curve" smooth="yes"/>
      <point x="292" y="42"/>
      <point x="353" y="56"/>
      <point x="352" y="55" type="curve"/>
      <point x="352" y="5" type="line"/>
      <point x="315" y="-4"/>
      <point x="274" y="-10"/>
      <point x="236" y="-11" type="curve" smooth="yes"/>
      <point x="115" y="-14"/>
      <point x="37" y="36"/>
      <point x="66" y="174" type="curve" smooth="yes"/>
      <point x="97" y="319" type="line" smooth="yes"/>
      <point x="121" y="429"/>
      <point x="187" y="510"/>
      <point x="320" y="510" type="curve" smooth="yes"/>
      <point x="366" y="510"/>
      <point x="412" y="498"/>
      <point x="451" y="478" type="curve"/>
    </contour>
  </outline>
</glyph>
<glyph name="i" format="1">
  <advance width="133" height="962"/>
  <unicode hex="0069"/>
  <outline>
    <contour>
      <point x="38" y="0" type="line"/>
      <point x="145" y="501" type="line"/>
      <point x="201" y="501" type="line"/>
      <point x="95" y="0" type="line"/>
    </contour>
    <contour>
      <point x="218" y="710" type="curve" smooth="yes"/>
      <point x="236" y="710"/>
      <point x="248" y="695"/>
      <point x="244" y="676" type="curve" smooth="yes"/>
      <point x="240" y="659"/>
      <point x="221" y="643"/>
      <point x="204" y="643" type="curve" smooth="yes"/>
      <point x="185" y="643"/>
      <point x="173" y="659"/>
      <point x="177" y="676" type="curve" smooth="yes"/>
      <point x="181" y="695"/>
      <point x="200" y="710"/>
    </contour>
  </outline>
</glyph>
<glyph name="k" format="2">
  <advance width="427" height="962"/>
  <unicode hex="006B"/>
  <outline>
    <contour>
      <point x="264.362" y="351.983" type="line"/>
      <point x="408.14" y="0" type="line"/>
      <point x="340.952" y="0" type="line"/>
      <point x="216.788" y="316.885" type="line"/>
      <point x="155.262" y="272.762" type="line"/>
      <point x="97.2716" y="0" type="line"/>
      <point x="41.1148" y="0" type="line"/>
      <point x="189.928" y="699.954" type="line"/>
      <point x="246.085" y="699.954" type="line"/>
      <point x="168.48" y="334.935" type="line"/>
      <point x="408.269" y="519.45" type="line"/>
      <point x="440.28" y="481.344" type="line"/>
    </contour>
  </outline>
</glyph>
<glyph name="l" format="2">
  <advance width="140"/>
  <unicode hex="006C"/>
  <outline>
    <contour>
      <point x="41.1148" y="0" type="line"/>
      <point x="189.928" y="699.954" type="line"/>
      <point x="245.082" y="699.954" type="line"/>
      <point x="96.2688" y="0" type="line"/>
    </contour>
  </outline>
</glyph>
<glyph name="n" format="2">
  <advance width="443"/>
  <unicode hex="006E"/>
  <outline>
    <contour>
      <point x="424.684" y="341.955" type="line" smooth="yes"/>
      <point x="443.872" y="432.207"/>
      <point x="383.444" y="459.282"/>
      <point x="319.264" y="459.282" type="curve" smooth="yes"/>
      <point x="274.138" y="459.282"/>
      <point x="231.681" y="448.252"/>
      <point x="184.66" y="425.187" type="curve"/>
      <point x="94.2632" y="0" type="line"/>
      <point x="38.1064" y="0" type="line"/>
      <point x="144.493" y="500.397" type="line"/>
      <point x="200.65" y="500.397" type="line"/>
      <point x="193.401" y="466.302" type="line"/>
      <point x="238.267" y="493.378"/>
      <point x="291.818" y="509.422"/>
      <point x="340.955" y="509.422" type="curve" smooth="yes"/>
      <point x="452.266" y="509.422"/>
      <point x="502.65" y="449.254"/>
      <point x="480.478" y="344.963" type="curve" smooth="yes"/>
      <point x="407.137" y="0" type="line"/>
      <point x="351.983" y="0" type="line"/>
    </contour>
  </outline>
</glyph>
<glyph name="p" format="1">
  <advance width="442" height="962"/>
  <unicode hex="0070"/>
  <outline>
    <contour>
      <point x="446" y="176" type="line" smooth="yes"/>
      <point x="421" y="54"/>
      <point x="347" y="-12"/>
      <point x="236" y="-12" type="curve" smooth="yes"/>
      <point x="174" y="-12"/>
      <point x="126" y="20"/>
      <point x="110" y="61" type="curve"/>
      <point x="51" y="-213" type="line"/>
      <point x="-1" y="-188" type="line"/>
      <point x="146" y="500" type="line"/>
      <point x="203" y="500" type="line"/>
      <point x="193" y="453" type="line"/>
      <point x="244" y="489"/>
      <point x="298" y="508"/>
      <point x="347" y="510" type="curve" smooth="yes"/>
      <point x="460" y="515"/>
      <point x="505" y="452"/>
      <point x="483" y="346" type="curve" smooth="yes"/>
    </contour>
    <contour>
      <point x="425" y="343" type="line" smooth="yes"/>
      <point x="444" y="433"/>
      <point x="389" y="466"/>
      <point x="325" y="460" type="curve" smooth="yes"/>
      <point x="280" y="456"/>
      <point x="218" y="434"/>
      <point x="180" y="393" type="curve"/>
      <point x="134" y="174" type="line" smooth="yes"/>
      <point x="116" y="89"/>
      <point x="167" y="40"/>
      <point x="244" y="40" type="curve" smooth="yes"/>
      <point x="319" y="40"/>
      <point x="370" y="82"/>
      <point x="388" y="167" type="curve" smooth="yes"/>
    </contour>
  </outline>
</glyph>
<glyph name="t" format="2">
  <advance width="241" height="962"/>
  <unicode hex="0074"/>
  <outline>
    <contour>
      <point x="123.408" y="132.37" type="line" smooth="yes"/>
      <point x="112.109" y="79.2212"/>
      <point x="126.922" y="45.126"/>
      <point x="167.847" y="30.084" type="curve"/>
      <point x="141.632" y="-13.0364" type="line"/>
      <point x="73.1176" y="9.0252"/>
      <point x="50.622" y="54.1512"/>
      <point x="67.2516" y="132.37" type="curve" smooth="yes"/>
      <point x="187.923" y="699.954" type="line"/>
      <point x="244.08" y="699.954" type="line"/>
      <point x="201.653" y="500.397" type="line"/>
      <point x="321.989" y="500.397" type="line"/>
      <point x="286.835" y="448.252" type="line"/>
      <point x="190.566" y="448.252" type="line"/>
    </contour>
  </outline>
</glyph>
<glyph name="u" format="2">
  <advance width="445"/>
  <unicode hex="0075"/>
  <outline>
    <contour>
      <point x="359" y="48" type="line"/>
      <point x="318" y="10"/>
      <point x="259" y="-11"/>
      <point x="208" y="-10" type="curve" smooth="yes"/>
      <point x="105" y="-9"/>
      <point x="44" y="43"/>
      <point x="68" y="157" type="curve" smooth="yes"/>
      <point x="142" y="501" type="line"/>
      <point x="198" y="501" type="line"/>
      <point x="126" y="160" type="line" smooth="yes"/>
      <point x="106" y="68"/>
      <point x="148" y="37"/>
      <point x="231" y="44" type="curve" smooth="yes"/>
      <point x="302" y="51"/>
      <point x="371" y="102"/>
      <point x="386" y="173" type="curve" smooth="yes"/>
      <point x="456" y="501" type="line"/>
      <point x="512" y="501" type="line"/>
      <point x="405" y="0" type="line"/>
      <point x="349" y="0" type="line"/>
    </contour>
  </outline>
</glyph>
<glyph name="w" format="2">
  <advance width="708"/>
  <unicode hex="0077"/>
  <outline>
    <contour>
      <point x="487" y="499" type="line"/>
      <point x="503" y="57" type="line"/>
      <point x="731" y="499" type="line"/>
      <point x="790" y="499" type="line"/>
      <point x="528" y="0" type="line"/>
      <point x="451" y="0" type="line"/>
      <point x="437" y="405" type="line"/>
      <point x="249" y="0" type="line"/>
      <point x="171" y="0" type="line"/>
      <point x="125" y="499" type="line"/>
      <point x="184" y="499" type="line"/>
      <point x="224" y="57" type="line"/>
      <point x="430" y="499" type="line"/>
    </contour>
  </outline>
</glyph>
<glyph name="x" format="2">
  <advance width="437"/>
  <unicode hex="0078"/>
  <outline>
    <contour>
      <point x="280" y="296" type="line"/>
      <point x="453" y="500" type="line"/>
      <point x="515" y="500" type="line"/>
      <point x="301.362" y="245" type="line"/>
      <point x="406" y="0" type="line"/>
      <point x="346" y="0" type="line"/>
      <point x="264.213" y="200" type="line"/>
      <point x="97" y="0" type="line"/>
      <point x="30" y="0" type="line"/>
      <point x="241.425" y="251" type="line"/>
      <point x="137" y="500" type="line"/>
      <point x="192" y="500" type="line"/>
    </contour>
  </outline>
</glyph>
<glyph name="z" format="2">
  <advance width="428"/>
  <unicode hex="007A"/>
  <outline>
    <contour>
      <point x="485" y="501" type="line"/>
      <point x="474" y="452" type="line"/>
      <point x="112" y="51" type="line"/>
      <point x="409.787" y="50" type="line"/>
      <point x="399" y="0" type="line"/>
      <point x="31" y="0" type="line"/>
      <point x="42" y="50" type="line"/>
      <point x="402" y="451" type="line"/>
      <point x="136.213" y="452" type="line"/>
      <point x="147" y="501" type="line"/>
    </contour>
  </outline>
</glyph>
<glyph name="braceleft" format="2">
  <advance width="258" height="962"/>
  <unicode hex="007B"/>
  <outline>
    <contour>
      <point x="273" y="517" type="line" smooth="yes"/>
      <point x="253.843" y="440.371"/>
      <point x="237.549" y="401.063"/>
      <point x="171" y="353" type="curve"/>
      <point x="219.556" y="302.502"/>
      <point x="216.823" y="254.508"/>
      <point x="203" y="190" type="curve" smooth="yes"/>
      <point x="179" y="76" type="line" smooth="yes"/>
      <point x="160" y="-13"/>
      <point x="197" y="-52"/>
      <point x="225" y="-67" type="curve"/>
      <point x="191" y="-118" type="line"/>
      <point x="186" y="-115"/>
      <point x="87" y="-84"/>
      <point x="122" y="76" type="curve" smooth="yes"/>
      <point x="146" y="190" type="line" smooth="yes"/>
      <point x="159.202" y="251.611"/>
      <point x="159.269" y="299.521"/>
      <point x="110" y="345" type="curve" smooth="yes"/>
      <point x="101" y="353" type="line"/>
      <point x="113" y="361" type="line" smooth="yes"/>
      <point x="175.992" y="401.86"/>
      <point x="199.636" y="445.303"/>
      <point x="215" y="517" type="curve" smooth="yes"/>
      <point x="239" y="630" type="line" smooth="yes"/>
      <point x="274" y="791"/>
      <point x="387" y="820"/>
      <point x="391" y="823" type="curve"/>
      <point x="402" y="774" type="line"/>
      <point x="370" y="758"/>
      <point x="316" y="720"/>
      <point x="297" y="630" type="curve" smooth="yes"/>
    </contour>
  </outline>
</glyph>
<glyph name="bar" format="2">
  <advance width="141"/>
  <unicode hex="007C"/>
  <outline>
    <contour>
      <point x="18" y="-114" type="line"/>
      <point x="216" y="818" type="line"/>
      <point x="271" y="818" type="line"/>
      <point x="73" y="-114" type="line"/>
    </contour>
  </outline>
</glyph>
<glyph name="braceright" format="1">
  <advance width="263" height="962"/>
  <unicode hex="007D"/>
  <outline>
    <contour>
      <point x="218" y="823" type="line"/>
      <point x="222" y="821"/>
      <point x="321" y="791"/>
      <point x="287" y="630" type="curve" smooth="yes"/>
      <point x="262" y="517" type="line" smooth="yes"/>
      <point x="250" y="460"/>
      <point x="245" y="410"/>
      <point x="300" y="361" type="curve" smooth="yes"/>
      <point x="309" y="353" type="line"/>
      <point x="296" y="345" type="line" smooth="yes"/>
      <point x="221" y="297"/>
      <point x="205" y="245"/>
      <point x="193" y="190" type="curve" smooth="yes"/>
      <point x="169" y="76" type="line" smooth="yes"/>
      <point x="135" y="-84"/>
      <point x="23" y="-115"/>
      <point x="17" y="-118" type="curve"/>
      <point x="6" y="-67" type="line"/>
      <point x="38" y="-51"/>
      <point x="94" y="-13"/>
      <point x="113" y="76" type="curve" smooth="yes"/>
      <point x="137" y="190" type="line" smooth="yes"/>
      <point x="149" y="246"/>
      <point x="166" y="301"/>
      <point x="238" y="353" type="curve"/>
      <point x="189" y="405"/>
      <point x="194" y="461"/>
      <point x="206" y="517" type="curve" smooth="yes"/>
      <point x="230" y="630" type="line" smooth="yes"/>
      <point x="249" y="720"/>
      <point x="212" y="758"/>
      <point x="186" y="774" type="curve"/>
    </contour>
  </outline>
</glyph>
<glyph name="asciitilde" format="2">
  <advance width="267"/>
  <unicode hex="007E"/>
  <outline>
    <contour>
      <point x="354" y="306" type="line"/>
      <point x="316" y="273"/>
      <point x="286" y="262"/>
      <point x="260" y="263" type="curve" smooth="yes"/>
      <point x="214" y="264"/>
      <point x="179" y="297"/>
      <point x="133" y="299" type="curve" smooth="yes"/>
      <point x="112" y="301"/>
      <point x="89" y="295"/>
      <point x="60" y="272" type="curve"/>
      <point x="46" y="313" type="line"/>
      <point x="81" y="344"/>
      <point x="111" y="354"/>
      <point x="137" y="354" type="curve" smooth="yes"/>
      <point x="187" y="354"/>
      <point x="224" y="317"/>
      <point x="271" y="318" type="curve" smooth="yes"/>
      <point x="296" y="319"/>
      <point x="318" y="330"/>
      <point x="338" y="347" type="curve"/>
    </contour>
  </outline>
</glyph>
<glyph name="cent" format="2">
  <advance width="381"/>
  <unicode hex="00A2"/>
  <outline>
    <component base="c"/>
    <contour>
      <point x="165" y="-114" type="line"/>
      <point x="321" y="623" type="line"/>
      <point x="377" y="623" type="line"/>
      <point x="221" y="-114" type="line"/>
    </contour>
  </outline>
</glyph>
<glyph name="currency" format="2">
  <advance width="467" height="962"/>
  <unicode hex="00A4"/>
  <outline>
    <contour>
      <point x="429" y="366" type="line"/>
      <point x="440" y="344"/>
      <point x="444" y="315"/>
      <point x="437" y="284" type="curve" smooth="yes"/>
      <point x="431" y="252"/>
      <point x="414" y="222"/>
      <point x="394" y="200" type="curve"/>
      <point x="459" y="118" type="line"/>
      <point x="415" y="81" type="line"/>
      <point x="350" y="165" type="line"/>
      <point x="322" y="147"/>
      <point x="293" y="138"/>
      <point x="262" y="138" type="curve" smooth="yes"/>
      <point x="230" y="138"/>
      <point x="203" y="147"/>
      <point x="184" y="165" type="curve"/>
      <point x="83" y="81" type="line"/>
      <point x="56" y="118" type="line"/>
      <point x="156" y="200" type="line"/>
      <point x="145" y="222"/>
      <point x="141" y="252"/>
      <point x="148" y="284" type="curve" smooth="yes"/>
      <point x="154" y="315"/>
      <point x="168" y="344"/>
      <point x="190" y="366" type="curve"/>
      <point x="127" y="450" type="line"/>
      <point x="169" y="485" type="line"/>
      <point x="233" y="401" type="line"/>
      <point x="261" y="420"/>
      <point x="292" y="429"/>
      <point x="324" y="429" type="curve" smooth="yes"/>
      <point x="355" y="429"/>
      <point x="382" y="420"/>
      <point x="400" y="401" type="curve"/>
      <point x="501" y="485" type="line"/>
      <point x="529" y="450" type="line"/>
    </contour>
    <contour>
      <point x="273" y="189" type="curve" smooth="yes"/>
      <point x="325" y="189"/>
      <point x="375" y="231"/>
      <point x="386" y="284" type="curve" smooth="yes"/>
      <point x="397" y="336"/>
      <point x="365" y="377"/>
      <point x="313" y="377" type="curve" smooth="yes"/>
      <point x="260" y="377"/>
      <point x="209" y="336"/>
      <point x="198" y="284" type="curve" smooth="yes"/>
      <point x="187" y="231"/>
      <point x="220" y="189"/>
    </contour>
  </outline>
</glyph>
<glyph name="ordfeminine" format="1">
  <advance width="329" height="962"/>
  <unicode hex="00AA"/>
  <outline>
    <contour>
      <point x="376" y="390" type="curve"/>
      <point x="331" y="385"/>
      <point x="289" y="379"/>
      <point x="252" y="379" type="curve"/>
      <point x="166" y="382"/>
      <point x="111" y="412"/>
      <point x="134" y="519" type="curve" smooth="yes"/>
      <point x="148" y="584"/>
      <point x="195" y="633"/>
      <point x="262" y="631" type="curve" smooth="yes"/>
      <point x="293" y="630"/>
      <point x="328" y="618"/>
      <point x="367" y="593" type="curve"/>
      <point x="372" y="615"/>
      <point x="367" y="637"/>
      <point x="348" y="651" type="curve" smooth="yes"/>
      <point x="333" y="662"/>
      <point x="303" y="666"/>
      <point x="265" y="666" type="curve"/>
      <point x="279" y="709" type="line"/>
      <point x="333" y="709"/>
      <point x="372" y="701"/>
      <point x="394" y="678" type="curve" smooth="yes"/>
      <point x="417" y="656"/>
      <point x="424" y="616"/>
      <point x="411" y="555" type="curve" smooth="yes"/>
      <point x="399" y="501"/>
      <point x="388" y="445"/>
    </contour>
    <contour>
      <point x="354" y="543" type="line"/>
      <point x="319" y="567"/>
      <point x="280" y="584"/>
      <point x="247" y="584" type="curve" smooth="yes"/>
      <point x="215" y="584"/>
      <point x="190" y="565"/>
      <point x="180" y="514" type="curve" smooth="yes"/>
      <point x="171" y="474"/>
      <point x="182" y="448"/>
      <point x="211" y="433" type="curve" smooth="yes"/>
      <point x="244" y="417"/>
      <point x="332" y="430"/>
      <point x="330" y="429" type="curve"/>
    </contour>
  </outline>
</glyph>
<glyph name="registered" format="1">
  <advance width="696" height="962"/>
  <unicode hex="00AE"/>
  <outline>
    <contour>
      <point x="704" y="188" type="line" smooth="yes"/>
      <point x="668" y="16"/>
      <point x="518" y="-69"/>
      <point x="333" y="-69" type="curve" smooth="yes"/>
      <point x="150" y="-69"/>
      <point x="35" y="16"/>
      <point x="71" y="188" type="curve" smooth="yes"/>
      <point x="101" y="327" type="line" smooth="yes"/>
      <point x="137" y="496"/>
      <point x="288" y="584"/>
      <point x="471" y="584" type="curve" smooth="yes"/>
      <point x="656" y="584"/>
      <point x="769" y="497"/>
      <point x="734" y="327" type="curve" smooth="yes"/>
    </contour>
    <contour>
      <point x="667" y="302" type="line" smooth="yes"/>
      <point x="702" y="467"/>
      <point x="635" y="530"/>
      <point x="460" y="530" type="curve" smooth="yes"/>
      <point x="284" y="530"/>
      <point x="190" y="467"/>
      <point x="155" y="302" type="curve" smooth="yes"/>
      <point x="136" y="212" type="line" smooth="yes"/>
      <point x="101" y="49"/>
      <point x="169" y="-15"/>
      <point x="344" y="-15" type="curve" smooth="yes"/>
      <point x="520" y="-15"/>
      <point x="613" y="49"/>
      <point x="648" y="212" type="curve" smooth="yes"/>
    </contour>
    <contour>
      <point x="480" y="443" type="line" smooth="yes"/>
      <point x="533" y="443"/>
      <point x="605" y="432"/>
      <point x="582" y="312" type="curve" smooth="yes"/>
      <point x="566" y="230"/>
      <point x="522" y="198"/>
      <point x="481" y="186" type="curve"/>
      <point x="517" y="59" type="line"/>
      <point x="453" y="59" type="line"/>
      <point x="421" y="177" type="line"/>
      <point x="272" y="177" type="line"/>
      <point x="246" y="59" type="line"/>
      <point x="193" y="59" type="line"/>
      <point x="275" y="443" type="line"/>
    </contour>
    <contour>
      <point x="438" y="233" type="line" smooth="yes"/>
      <point x="489" y="233"/>
      <point x="518" y="257"/>
      <point x="530" y="311" type="curve" smooth="yes"/>
      <point x="541" y="366"/>
      <point x="525" y="389"/>
      <point x="471" y="389" type="curve" smooth="yes"/>
      <point x="317" y="389" type="line"/>
      <point x="284" y="233" type="line"/>
    </contour>
  </outline>
</glyph>
<glyph name="plusminus" format="1">
  <advance width="383" height="962"/>
  <unicode hex="00B1"/>
  <outline>
    <contour>
      <point x="112" y="378" type="line"/>
      <point x="123" y="432" type="line"/>
      <point x="256" y="432" type="line"/>
      <point x="285" y="565" type="line"/>
      <point x="340" y="565" type="line"/>
      <point x="312" y="432" type="line"/>
      <point x="443" y="432" type="line"/>
      <point x="431" y="378" type="line"/>
      <point x="300" y="378" type="line"/>
      <point x="273" y="247" type="line"/>
      <point x="403" y="247" type="line"/>
      <point x="390" y="190" type="line"/>
      <point x="70" y="190" type="line"/>
      <point x="83" y="247" type="line"/>
      <point x="217" y="247" type="line"/>
      <point x="245" y="378" type="line"/>
    </contour>
  </outline>
</glyph>
<glyph name="mu" format="1">
  <advance width="466" height="962"/>
  <unicode hex="00B5"/>
  <outline>
    <contour>
      <point x="429.183" y="94.2632" type="line" smooth="yes"/>
      <point x="420.229" y="52.1456"/>
      <point x="440.182" y="28.0784"/>
      <point x="441.761" y="26.0728" type="curve"/>
      <point x="407.863" y="-6.0168" type="line"/>
      <point x="402.699" y="-2.0056"/>
      <point x="382.193" y="10.028"/>
      <point x="371.542" y="40.112" type="curve"/>
      <point x="339.01" y="5.014"/>
      <point x="294.27" y="-12.0336"/>
      <point x="244.13" y="-12.0336" type="curve" smooth="yes"/>
      <point x="134.825" y="-12.0336"/>
      <point x="108.208" y="56.1568"/>
      <point x="107.568" y="53.1484" type="curve"/>
      <point x="51.71" y="-209.585" type="line"/>
      <point x="-1.5488" y="-186.521" type="line"/>
      <point x="145.496" y="500.397" type="line"/>
      <point x="202.656" y="500.397" type="line"/>
      <point x="130.957" y="158.442" type="line" smooth="yes"/>
      <point x="116.246" y="89.2492"/>
      <point x="173.5" y="33.0924"/>
      <point x="259.868" y="43.1204" type="curve" smooth="yes"/>
      <point x="329.764" y="51.1428"/>
      <point x="376.098" y="99.2772"/>
      <point x="391.875" y="173.484" type="curve" smooth="yes"/>
      <point x="457.73" y="497.389" type="line"/>
      <point x="517.448" y="509.422" type="line"/>
    </contour>
  </outline>
</glyph>
<glyph name="paragraph" format="1">
  <advance width="622" height="962"/>
  <unicode hex="00B6"/>
  <outline>
    <contour>
      <point x="281" y="247" type="line" smooth="yes"/>
      <point x="149" y="247"/>
      <point x="96" y="310"/>
      <point x="132" y="476" type="curve" smooth="yes"/>
      <point x="168" y="647"/>
      <point x="249" y="702"/>
      <point x="377" y="702" type="curve" smooth="yes"/>
      <point x="728" y="702" type="line"/>
      <point x="579" y="1" type="line"/>
      <point x="523" y="1" type="line"/>
      <point x="661" y="649" type="line"/>
      <point x="602" y="649" type="line"/>
      <point x="464" y="1" type="line"/>
      <point x="408" y="1" type="line"/>
      <point x="461" y="247" type="line"/>
    </contour>
    <contour>
      <point x="362" y="649" type="line" smooth="yes"/>
      <point x="284" y="649"/>
      <point x="218" y="617"/>
      <point x="188" y="476" type="curve" smooth="yes"/>
      <point x="154" y="321"/>
      <point x="213" y="304"/>
      <point x="288" y="301" type="curve"/>
      <point x="473" y="301" type="line"/>
      <point x="546" y="649" type="line"/>
    </contour>
  </outline>
</glyph>
<glyph name="cedilla" format="2">
  <advance width="267"/>
  <unicode hex="00B8"/>
  <outline>
    <contour>
      <point x="174" y="10" type="line"/>
      <point x="138" y="-34" type="line"/>
      <point x="146" y="-33"/>
      <point x="156" y="-32"/>
      <point x="165" y="-32" type="curve"/>
      <point x="233" y="-29"/>
      <point x="261" y="-76"/>
      <point x="250" y="-125" type="curve" smooth="yes"/>
      <point x="236" y="-192"/>
      <point x="173" y="-224"/>
      <point x="114" y="-224" type="curve" smooth="yes"/>
      <point x="69" y="-224"/>
      <point x="17" y="-212"/>
      <point x="15" y="-212" type="curve"/>
      <point x="37" y="-163" type="line"/>
      <point x="64" y="-169"/>
      <point x="92" y="-174"/>
      <point x="118" y="-174" type="curve" smooth="yes"/>
      <point x="158" y="-174"/>
      <point x="192" y="-158"/>
      <point x="200" y="-123" type="curve" smooth="yes"/>
      <point x="209" y="-88"/>
      <point x="187" y="-80"/>
      <point x="151" y="-81" type="curve" smooth="yes"/>
      <point x="130" y="-82"/>
      <point x="103" y="-84"/>
      <point x="76" y="-88" type="curve"/>
      <point x="69" y="-59" type="line"/>
      <point x="123" y="10" type="line"/>
    </contour>
  </outline>
</glyph>
<glyph name="ordmasculine" format="2">
	<advance width="320"/>
	<unicode hex="00BA"/>
	<outline>
		<contour>
			<point x="398" y="503" type="line" smooth="yes"/>
			<point x="380" y="429"/>
			<point x="330" y="379"/>
			<point x="240" y="379" type="curve" smooth="yes"/>
			<point x="148" y="379"/>
			<point x="115" y="434"/>
			<point x="132" y="503" type="curve" smooth="yes"/>
			<point x="152" y="586" type="line" smooth="yes"/>
			<point x="171" y="667"/>
			<point x="226" y="711"/>
			<point x="315" y="711" type="curve" smooth="yes"/>
			<point x="402" y="711"/>
			<point x="437" y="664"/>
			<point x="418" y="586" type="curve" smooth="yes"/>
		</contour>
		<contour>
			<point x="359" y="569" type="line" smooth="yes"/>
			<point x="374" y="630"/>
			<point x="359" y="662"/>
			<point x="305" y="662" type="curve" smooth="yes"/>
			<point x="249" y="662"/>
			<point x="217" y="630"/>
			<point x="202" y="569" type="curve" smooth="yes"/>
			<point x="189" y="515" type="line" smooth="yes"/>
			<point x="177" y="464"/>
			<point x="187" y="429"/>
			<point x="250" y="429" type="curve" smooth="yes"/>
			<point x="314" y="429"/>
			<point x="334" y="463"/>
			<point x="346" y="515" type="curve" smooth="yes"/>
		</contour>
	</outline>
</glyph>
<glyph name="guillemotright" format="2">
  <advance width="504" height="962"/>
  <unicode hex="00BB"/>
  <outline>
    <contour>
      <point x="237" y="267" type="line"/>
      <point x="120" y="417" type="line"/>
      <point x="164" y="455" type="line"/>
      <point x="312" y="267" type="line"/>
      <point x="84" y="79" type="line"/>
      <point x="57" y="114" type="line"/>
    </contour>
    <contour>
      <point x="457" y="267" type="line"/>
      <point x="340" y="417" type="line"/>
      <point x="385" y="455" type="line"/>
      <point x="531" y="267" type="line"/>
      <point x="305" y="79" type="line"/>
      <point x="277" y="114" type="line"/>
    </contour>
  </outline>
</glyph>
<glyph name="questiondown" format="2">
  <advance width="409"/>
  <unicode hex="00BF"/>
  <outline>
    <contour>
      <point x="413" y="162" type="line"/>
      <point x="386" y="37"/>
      <point x="284" y="-17"/>
      <point x="197" y="-15" type="curve" smooth="yes"/>
      <point x="123" y="-13"/>
      <point x="38" y="48"/>
      <point x="62" y="156" type="curve" smooth="yes"/>
      <point x="79" y="230"/>
      <point x="127" y="276"/>
      <point x="181" y="327" type="curve" smooth="yes"/>
      <point x="230" y="372"/>
      <point x="274" y="403"/>
      <point x="291" y="487" type="curve" smooth="yes"/>
      <point x="310" y="574" type="line"/>
      <point x="362" y="574" type="line"/>
      <point x="342" y="482" type="line" smooth="yes"/>
      <point x="324" y="394"/>
      <point x="273" y="345"/>
      <point x="227" y="303" type="curve" smooth="yes"/>
      <point x="180" y="261"/>
      <point x="133" y="226"/>
      <point x="118" y="158" type="curve" smooth="yes"/>
      <point x="102" y="79"/>
      <point x="152" y="39"/>
      <point x="210" y="37" type="curve" smooth="yes"/>
      <point x="271" y="35"/>
      <point x="339" y="76"/>
      <point x="357" y="162" type="curve"/>
    </contour>
    <contour>
      <point x="362" y="703" type="curve" smooth="yes"/>
      <point x="381" y="703"/>
      <point x="393" y="688"/>
      <point x="389" y="669" type="curve" smooth="yes"/>
      <point x="385" y="651"/>
      <point x="367" y="636"/>
      <point x="348" y="636" type="curve" smooth="yes"/>
      <point x="331" y="636"/>
      <point x="318" y="651"/>
      <point x="322" y="669" type="curve" smooth="yes"/>
      <point x="326" y="688"/>
      <point x="345" y="703"/>
    </contour>
  </outline>
</glyph>
<glyph name="Eth" format="2">
  <advance width="497" height="962"/>
  <unicode hex="00D0"/>
  <outline>
    <component base="D"/>
    <contour>
      <point x="143" y="357" type="line"/>
      <point x="155" y="412" type="line"/>
      <point x="376" y="412" type="line"/>
      <point x="346" y="357" type="line"/>
    </contour>
  </outline>
</glyph>
<glyph name="Oslash" format="2">
  <advance width="492"/>
  <unicode hex="00D8"/>
  <outline>
    <component base="O"/>
    <contour>
      <point x="35" y="-1" type="line"/>
      <point x="561" y="701" type="line"/>
      <point x="617" y="701" type="line"/>
      <point x="97" y="-1" type="line"/>
    </contour>
  </outline>
</glyph>
<glyph name="eth" format="2">
  <advance width="425"/>
  <unicode hex="00F0"/>
  <outline>
    <contour>
      <point x="446" y="659" type="curve"/>
      <point x="500" y="703" type="line"/>
      <point x="522" y="675" type="line"/>
      <point x="471" y="633" type="line"/>
      <point x="506" y="581"/>
      <point x="511" y="532"/>
      <point x="498" y="471" type="curve" smooth="yes"/>
      <point x="438" y="188" type="line" smooth="yes"/>
      <point x="411" y="61"/>
      <point x="329" y="-9"/>
      <point x="210" y="-9" type="curve" smooth="yes"/>
      <point x="91" y="-9"/>
      <point x="42" y="66"/>
      <point x="68" y="188" type="curve" smooth="yes"/>
      <point x="80" y="246" type="line" smooth="yes"/>
      <point x="107" y="369"/>
      <point x="180" y="434"/>
      <point x="290" y="434" type="curve" smooth="yes"/>
      <point x="352" y="434"/>
      <point x="404" y="403"/>
      <point x="418" y="360" type="curve"/>
      <point x="443" y="481" type="line"/>
      <point x="455" y="533"/>
      <point x="446" y="571"/>
      <point x="430" y="599" type="curve"/>
      <point x="304" y="496" type="line"/>
      <point x="282" y="524" type="line"/>
      <point x="407" y="627" type="line"/>
      <point x="377" y="655"/>
      <point x="340" y="666"/>
      <point x="324" y="670" type="curve"/>
      <point x="339" y="701" type="line"/>
      <point x="383" y="695"/>
      <point x="419" y="681"/>
    </contour>
    <contour>
      <point x="218" y="43" type="curve" smooth="yes"/>
      <point x="306" y="43"/>
      <point x="360" y="90"/>
      <point x="381" y="188" type="curve" smooth="yes"/>
      <point x="394" y="249" type="line" smooth="yes"/>
      <point x="412" y="334"/>
      <point x="360" y="381"/>
      <point x="284" y="381" type="curve" smooth="yes"/>
      <point x="208" y="381"/>
      <point x="156" y="338"/>
      <point x="139" y="254" type="curve"/>
      <point x="124" y="188" type="line"/>
      <point x="104" y="90"/>
      <point x="134" y="43"/>
    </contour>
  </outline>
</glyph>
<glyph name="oslash" format="2">
  <advance width="430"/>
  <unicode hex="00F8"/>
  <outline>
    <component base="o"/>
    <contour>
      <point x="470" y="514" type="line"/>
      <point x="125" y="-20" type="line"/>
      <point x="68" y="-20" type="line"/>
      <point x="412" y="514" type="line"/>
    </contour>
  </outline>
</glyph>
<glyph name="dcroat" format="2">
  <advance width="458" height="962"/>
  <unicode hex="0111"/>
  <outline>
    <component base="d"/>
    <contour>
      <point x="581" y="564" type="line"/>
      <point x="345" y="564" type="line"/>
      <point x="356" y="617" type="line"/>
      <point x="592" y="617" type="line"/>
    </contour>
  </outline>
</glyph>
<glyph name="IJ" format="2">
  <advance width="551"/>
  <unicode hex="0132"/>
  <outline>
    <contour>
      <point x="656" y="700" type="line"/>
      <point x="546" y="186" type="line" smooth="yes"/>
      <point x="520" y="60"/>
      <point x="421" y="-11"/>
      <point x="296" y="-11" type="curve" smooth="yes"/>
      <point x="178" y="-11"/>
      <point x="100" y="57"/>
      <point x="127" y="186" type="curve" smooth="yes"/>
      <point x="135" y="223" type="line"/>
      <point x="190" y="223" type="line"/>
      <point x="182" y="187" type="line" smooth="yes"/>
      <point x="162" y="92"/>
      <point x="211" y="40"/>
      <point x="303" y="40" type="curve" smooth="yes"/>
      <point x="397" y="40"/>
      <point x="471" y="93"/>
      <point x="491" y="187" type="curve" smooth="yes"/>
      <point x="589" y="649" type="line"/>
      <point x="522" y="651" type="line"/>
      <point x="532" y="700" type="line"/>
    </contour>
    <contour>
      <point x="292" y="700" type="line"/>
      <point x="201" y="275" type="line"/>
      <point x="146" y="275" type="line"/>
      <point x="225" y="649" type="line"/>
      <point x="158" y="651" type="line"/>
      <point x="168" y="700" type="line"/>
    </contour>
  </outline>
</glyph>
<glyph name="Lslash" format="2">
  <advance width="511"/>
  <unicode hex="0141"/>
  <outline>
    <component base="L" xOffset="85"/>
    <contour>
      <point x="106" y="309" type="line"/>
      <point x="95" y="359" type="line"/>
      <point x="414" y="490" type="line"/>
      <point x="427" y="440" type="line"/>
    </contour>
  </outline>
</glyph>
<glyph name="Eng" format="2">
  <advance width="578"/>
  <unicode hex="014A"/>
  <outline>
    <contour>
      <point x="522" y="-62" type="line" smooth="yes"/>
      <point x="504" y="-146"/>
      <point x="464" y="-185"/>
      <point x="384" y="-209" type="curve"/>
      <point x="378" y="-166" type="line"/>
      <point x="426" y="-148"/>
      <point x="455" y="-112"/>
      <point x="466" y="-62" type="curve" smooth="yes"/>
      <point x="479" y="1" type="line"/>
      <point x="224" y="597" type="line"/>
      <point x="98" y="0" type="line"/>
      <point x="41" y="0" type="line"/>
      <point x="190" y="700" type="line"/>
      <point x="247" y="700" type="line"/>
      <point x="501" y="104" type="line"/>
      <point x="628" y="700" type="line"/>
      <point x="684" y="700" type="line"/>
    </contour>
  </outline>
</glyph>
<glyph name="eng" format="2">
  <advance width="443" height="962"/>
  <unicode hex="014B"/>
  <outline>
    <contour>
      <point x="393" y="-66" type="line" smooth="yes"/>
      <point x="375" y="-149"/>
      <point x="335" y="-188"/>
      <point x="256" y="-212" type="curve"/>
      <point x="249" y="-169" type="line"/>
      <point x="297" y="-153"/>
      <point x="327" y="-114"/>
      <point x="337" y="-65" type="curve" smooth="yes"/>
      <point x="424" y="343" type="line" smooth="yes"/>
      <point x="443" y="434"/>
      <point x="383" y="460"/>
      <point x="320" y="460" type="curve" smooth="yes"/>
      <point x="274" y="460"/>
      <point x="228" y="448"/>
      <point x="185" y="425" type="curve"/>
      <point x="95" y="0" type="line"/>
      <point x="38" y="0" type="line"/>
      <point x="145" y="500" type="line"/>
      <point x="201" y="500" type="line"/>
      <point x="194" y="467" type="line"/>
      <point x="238" y="493"/>
      <point x="292" y="510"/>
      <point x="341" y="510" type="curve" smooth="yes"/>
      <point x="452" y="510"/>
      <point x="503" y="451"/>
      <point x="481" y="346" type="curve" smooth="yes"/>
    </contour>
  </outline>
</glyph>
<glyph name="Tbar" format="2">
  <advance width="417" height="962"/>
  <unicode hex="0166"/>
  <outline>
    <component base="T"/>
    <contour>
      <point x="89" y="379" type="line"/>
      <point x="489" y="379" type="line"/>
      <point x="478" y="326" type="line"/>
      <point x="78" y="326" type="line"/>
    </contour>
  </outline>
</glyph>
<glyph name="tbar" format="2">
  <advance width="271" height="962"/>
  <unicode hex="0167"/>
  <outline>
    <component base="t" xOffset="29"/>
    <contour>
      <point x="290" y="303" type="line"/>
      <point x="65" y="303" type="line"/>
      <point x="77" y="356" type="line"/>
      <point x="302" y="356" type="line"/>
    </contour>
  </outline>
</glyph>
<glyph name="breve" format="2">
  <advance width="267" height="962"/>
  <unicode hex="02D8"/>
  <outline>
    <contour>
      <point x="395" y="704" type="line"/>
      <point x="394" y="697" type="line" smooth="yes"/>
      <point x="381" y="635"/>
      <point x="320" y="584"/>
      <point x="257" y="584" type="curve" smooth="yes"/>
      <point x="196" y="584"/>
      <point x="155" y="634"/>
      <point x="168" y="697" type="curve" smooth="yes"/>
      <point x="170" y="704" type="line"/>
      <point x="215" y="704" type="line"/>
      <point x="213" y="697" type="line" smooth="yes"/>
      <point x="206" y="660"/>
      <point x="217" y="629"/>
      <point x="264" y="629" type="curve" smooth="yes"/>
      <point x="303" y="629"/>
      <point x="341" y="660"/>
      <point x="349" y="697" type="curve" smooth="yes"/>
      <point x="350" y="704" type="line"/>
    </contour>
  </outline>
</glyph>
<glyph name="tildecomb" format="2">
  <advance width="267" height="962"/>
  <unicode hex="0303"/>
  <outline>
    <contour>
      <point x="359" y="719" type="line"/>
      <point x="409" y="719" type="line"/>
      <point x="405" y="701" type="line" smooth="yes"/>
      <point x="396" y="660"/>
      <point x="368" y="619"/>
      <point x="321" y="619" type="curve" smooth="yes"/>
      <point x="300" y="619"/>
      <point x="285" y="630"/>
      <point x="270" y="640" type="curve" smooth="yes"/>
      <point x="259" y="647"/>
      <point x="249" y="655"/>
      <point x="240" y="662" type="curve" smooth="yes"/>
      <point x="232" y="668"/>
      <point x="220" y="675"/>
      <point x="209" y="668" type="curve" smooth="yes"/>
      <point x="202" y="663"/>
      <point x="198" y="647"/>
      <point x="197" y="640" type="curve" smooth="yes"/>
      <point x="194" y="622" type="line"/>
      <point x="144" y="622" type="line"/>
      <point x="147" y="640" type="line" smooth="yes"/>
      <point x="151" y="664"/>
      <point x="163" y="690"/>
      <point x="187" y="707" type="curve" smooth="yes"/>
      <point x="210" y="723"/>
      <point x="238" y="723"/>
      <point x="260" y="713" type="curve" smooth="yes"/>
      <point x="274" y="707"/>
      <point x="286" y="696"/>
      <point x="298" y="687" type="curve" smooth="yes"/>
      <point x="306" y="680"/>
      <point x="321" y="669"/>
      <point x="329" y="669" type="curve" smooth="yes"/>
      <point x="343" y="669"/>
      <point x="352" y="686"/>
      <point x="355" y="701" type="curve" smooth="yes"/>
    </contour>
  </outline>
</glyph>
<glyph name="Eta" format="2">
  <advance width="515" height="962"/>
  <unicode hex="0397"/>
  <outline>
    <contour>
      <point x="503" y="412" type="line"/>
      <point x="564" y="700" type="line"/>
      <point x="620" y="700" type="line"/>
      <point x="472" y="0" type="line"/>
      <point x="415" y="0" type="line"/>
      <point x="491" y="357" type="line"/>
      <point x="173" y="357" type="line"/>
      <point x="98" y="0" type="line"/>
      <point x="41" y="0" type="line"/>
      <point x="190" y="700" type="line"/>
      <point x="246" y="700" type="line"/>
      <point x="185" y="412" type="line"/>
    </contour>
  </outline>
</glyph>
<glyph name="Lambda" format="2">
  <advance width="547"/>
  <unicode hex="039B"/>
  <outline>
    <contour>
      <point x="402" y="614" type="line"/>
      <point x="81" y="0" type="line"/>
      <point x="21" y="0" type="line"/>
      <point x="395" y="700" type="line"/>
      <point x="448" y="700" type="line"/>
      <point x="527" y="0" type="line"/>
      <point x="467" y="0" type="line"/>
    </contour>
  </outline>
</glyph>
<glyph name="Xi" format="2">
  <advance width="564" height="962"/>
  <unicode hex="039E"/>
  <outline>
    <contour>
      <point x="150" y="595" type="line"/>
      <point x="187" y="670"/>
      <point x="238" y="700"/>
      <point x="318" y="700" type="curve" smooth="yes"/>
      <point x="643" y="700" type="line"/>
      <point x="610" y="650" type="line"/>
      <point x="307" y="650" type="line" smooth="yes"/>
      <point x="254" y="650"/>
      <point x="217" y="627"/>
      <point x="189" y="579" type="curve"/>
    </contour>
    <contour>
      <point x="482" y="307" type="line"/>
      <point x="215" y="307" type="line"/>
      <point x="227" y="363" type="line"/>
      <point x="494" y="363" type="line"/>
    </contour>
    <contour>
      <point x="399" y="53" type="line" smooth="yes"/>
      <point x="451" y="53"/>
      <point x="490" y="77"/>
      <point x="517" y="123" type="curve"/>
      <point x="556" y="107" type="line"/>
      <point x="519" y="32"/>
      <point x="468" y="0"/>
      <point x="387" y="0" type="curve" smooth="yes"/>
      <point x="63" y="0" type="line"/>
      <point x="96" y="53" type="line"/>
    </contour>
  </outline>
</glyph>
<glyph name="Pi" format="2">
  <advance width="515" height="962"/>
  <unicode hex="03A0"/>
  <outline>
    <contour>
      <point x="414" y="0" type="line"/>
      <point x="551" y="643" type="line"/>
      <point x="234" y="643" type="line"/>
      <point x="98" y="0" type="line"/>
      <point x="41" y="0" type="line"/>
      <point x="190" y="700" type="line"/>
      <point x="620" y="700" type="line"/>
      <point x="472" y="0" type="line"/>
    </contour>
  </outline>
</glyph>
<glyph name="Upsilon" format="1">
  <advance width="515" height="962"/>
  <unicode hex="03A5"/>
  <outline>
    <contour>
      <point x="507" y="156" type="line" smooth="yes"/>
      <point x="486" y="58"/>
      <point x="436" y="2"/>
      <point x="368" y="-7" type="curve"/>
      <point x="362" y="30" type="line"/>
      <point x="408" y="46"/>
      <point x="435" y="86"/>
      <point x="450" y="153" type="curve" smooth="yes"/>
      <point x="483" y="306" type="line"/>
      <point x="433" y="263"/>
      <point x="364" y="246"/>
      <point x="297" y="246" type="curve" smooth="yes"/>
      <point x="151" y="246"/>
      <point x="99" y="326"/>
      <point x="127" y="456" type="curve" smooth="yes"/>
      <point x="179" y="700" type="line"/>
      <point x="235" y="700" type="line"/>
      <point x="184" y="453" type="line" smooth="yes"/>
      <point x="163" y="353"/>
      <point x="192" y="300"/>
      <point x="303" y="300" type="curve" smooth="yes"/>
      <point x="387" y="300"/>
      <point x="488" y="327"/>
      <point x="508" y="423" type="curve" smooth="yes"/>
      <point x="566" y="700" type="line"/>
      <point x="622" y="700" type="line"/>
    </contour>
  </outline>
</glyph>
<glyph name="Psi" format="2">
  <advance width="595" height="962"/>
  <unicode hex="03A8"/>
  <outline>
    <contour>
      <point x="174" y="396" type="line" smooth="yes"/>
      <point x="155" y="308"/>
      <point x="198" y="264"/>
      <point x="278" y="264" type="curve" smooth="yes"/>
      <point x="322" y="264" type="line"/>
      <point x="415" y="700" type="line"/>
      <point x="472" y="700" type="line"/>
      <point x="379" y="264" type="line"/>
      <point x="429" y="264" type="line" smooth="yes"/>
      <point x="508" y="264"/>
      <point x="570" y="308"/>
      <point x="588" y="396" type="curve" smooth="yes"/>
      <point x="623" y="564" type="line" smooth="yes"/>
      <point x="643" y="662"/>
      <point x="605" y="692"/>
      <point x="607" y="693" type="curve"/>
      <point x="655" y="709" type="line"/>
      <point x="686" y="685"/>
      <point x="696" y="639"/>
      <point x="677" y="550" type="curve" smooth="yes"/>
      <point x="646" y="406" type="line" smooth="yes"/>
      <point x="620" y="285"/>
      <point x="545" y="213"/>
      <point x="418" y="213" type="curve" smooth="yes"/>
      <point x="368" y="213" type="line"/>
      <point x="323" y="0" type="line"/>
      <point x="266" y="0" type="line"/>
      <point x="311" y="213" type="line"/>
      <point x="267" y="213" type="line" smooth="yes"/>
      <point x="141" y="213"/>
      <point x="94" y="285"/>
      <point x="120" y="406" type="curve" smooth="yes"/>
      <point x="182" y="700" type="line"/>
      <point x="238" y="700" type="line"/>
    </contour>
  </outline>
</glyph>
<glyph name="alpha" format="2">
  <advance width="439" height="962"/>
  <unicode hex="03B1"/>
  <outline>
    <contour>
      <point x="507" y="487" type="line"/>
      <point x="507" y="487"/>
      <point x="492" y="449"/>
      <point x="482" y="400" type="curve" smooth="yes"/>
      <point x="397" y="4" type="line"/>
      <point x="399" y="4"/>
      <point x="270" y="-3"/>
      <point x="225" y="-4" type="curve" smooth="yes"/>
      <point x="129" y="-7"/>
      <point x="35" y="19"/>
      <point x="67" y="169" type="curve" smooth="yes"/>
      <point x="107" y="354" type="line" smooth="yes"/>
      <point x="132" y="473"/>
      <point x="212" y="508"/>
      <point x="287" y="508" type="curve" smooth="yes"/>
      <point x="340" y="508"/>
      <point x="397" y="490"/>
      <point x="445" y="465" type="curve"/>
      <point x="445" y="465"/>
      <point x="456" y="490"/>
      <point x="467" y="508" type="curve"/>
    </contour>
    <contour>
      <point x="121" y="163" type="line" smooth="yes"/>
      <point x="105" y="88"/>
      <point x="137" y="46"/>
      <point x="216" y="46" type="curve" smooth="yes"/>
      <point x="287" y="46"/>
      <point x="351" y="52"/>
      <point x="351" y="52" type="curve"/>
      <point x="428" y="415" type="line"/>
      <point x="370" y="443"/>
      <point x="331" y="456"/>
      <point x="287" y="456" type="curve" smooth="yes"/>
      <point x="252" y="456"/>
      <point x="182" y="449"/>
      <point x="161" y="351" type="curve" smooth="yes"/>
    </contour>
  </outline>
</glyph>
<glyph name="epsilon" format="2">
  <advance width="396" height="962"/>
  <unicode hex="03B5"/>
  <outline>
    <contour>
      <point x="396" y="446" type="line"/>
      <point x="345" y="464"/>
      <point x="307" y="464"/>
      <point x="274" y="457" type="curve" smooth="yes"/>
      <point x="222" y="445"/>
      <point x="194" y="417"/>
      <point x="187" y="382" type="curve" smooth="yes"/>
      <point x="178" y="342"/>
      <point x="201" y="301"/>
      <point x="247" y="301" type="curve" smooth="yes"/>
      <point x="366" y="301" type="line"/>
      <point x="335" y="247" type="line"/>
      <point x="236" y="247" type="line" smooth="yes"/>
      <point x="198" y="247"/>
      <point x="124" y="221"/>
      <point x="108" y="146" type="curve" smooth="yes"/>
      <point x="95" y="87"/>
      <point x="139" y="42"/>
      <point x="222" y="42" type="curve" smooth="yes"/>
      <point x="268" y="42"/>
      <point x="320" y="56"/>
      <point x="372" y="74" type="curve"/>
      <point x="377" y="23" type="line"/>
      <point x="326" y="2"/>
      <point x="259" y="-11"/>
      <point x="200" y="-11" type="curve" smooth="yes"/>
      <point x="103" y="-11"/>
      <point x="31" y="44"/>
      <point x="50" y="145" type="curve" smooth="yes"/>
      <point x="61" y="202"/>
      <point x="101" y="260"/>
      <point x="164" y="281" type="curve"/>
      <point x="135" y="300"/>
      <point x="120" y="337"/>
      <point x="128" y="379" type="curve" smooth="yes"/>
      <point x="141" y="443"/>
      <point x="203" y="511"/>
      <point x="310" y="511" type="curve" smooth="yes"/>
      <point x="340" y="511"/>
      <point x="372" y="507"/>
      <point x="407" y="497" type="curve"/>
    </contour>
  </outline>
</glyph>
<glyph name="eta" format="1">
  <advance width="444" height="962"/>
  <unicode hex="03B7"/>
  <outline>
    <contour>
      <point x="425" y="343" type="line" smooth="yes"/>
      <point x="444" y="434"/>
      <point x="384" y="460"/>
      <point x="320" y="460" type="curve" smooth="yes"/>
      <point x="274" y="460"/>
      <point x="231" y="448"/>
      <point x="185" y="425" type="curve"/>
      <point x="95" y="0" type="line"/>
      <point x="38" y="0" type="line"/>
      <point x="145" y="501" type="line"/>
      <point x="201" y="501" type="line"/>
      <point x="194" y="467" type="line"/>
      <point x="238" y="493"/>
      <point x="292" y="510"/>
      <point x="341" y="510" type="curve" smooth="yes"/>
      <point x="452" y="510"/>
      <point x="503" y="452"/>
      <point x="481" y="346" type="curve" smooth="yes"/>
      <point x="363" y="-210" type="line"/>
      <point x="313" y="-187" type="line"/>
    </contour>
  </outline>
</glyph>
<glyph name="theta" format="2">
  <advance width="442"/>
  <unicode hex="03B8"/>
  <outline>
    <contour>
      <point x="371" y="709" type="curve" smooth="yes"/>
      <point x="498" y="709"/>
      <point x="540" y="632"/>
      <point x="513" y="505" type="curve" smooth="yes"/>
      <point x="445" y="189" type="line" smooth="yes"/>
      <point x="418" y="59"/>
      <point x="342" y="-6"/>
      <point x="218" y="-6" type="curve" smooth="yes"/>
      <point x="93" y="-6"/>
      <point x="46" y="67"/>
      <point x="72" y="189" type="curve" smooth="yes"/>
      <point x="99" y="311" type="line" smooth="yes"/>
      <point x="111" y="371"/>
      <point x="137" y="419"/>
      <point x="174" y="453" type="curve"/>
      <point x="159" y="492"/>
      <point x="164" y="535"/>
      <point x="169" y="559" type="curve" smooth="yes"/>
      <point x="186" y="638"/>
      <point x="258" y="709"/>
    </contour>
    <contour>
      <point x="457" y="506" type="line" smooth="yes"/>
      <point x="480" y="614"/>
      <point x="436" y="656"/>
      <point x="360" y="656" type="curve" smooth="yes"/>
      <point x="286" y="656"/>
      <point x="238" y="611"/>
      <point x="227" y="557" type="curve" smooth="yes"/>
      <point x="223" y="539"/>
      <point x="203" y="466"/>
      <point x="280" y="423" type="curve" smooth="yes"/>
      <point x="311" y="406"/>
      <point x="360" y="394"/>
      <point x="433" y="394" type="curve"/>
    </contour>
    <contour>
      <point x="229" y="42" type="curve" smooth="yes"/>
      <point x="315" y="42"/>
      <point x="368" y="87"/>
      <point x="386" y="176" type="curve" smooth="yes"/>
      <point x="423" y="349" type="line"/>
      <point x="302" y="344"/>
      <point x="235" y="372"/>
      <point x="200" y="409" type="curve"/>
      <point x="178" y="385"/>
      <point x="163" y="353"/>
      <point x="155" y="311" type="curve" smooth="yes"/>
      <point x="126" y="176" type="line" smooth="yes"/>
      <point x="107" y="87"/>
      <point x="151" y="42"/>
    </contour>
  </outline>
</glyph>
<glyph name="nu" format="2">
  <advance width="428"/>
  <unicode hex="03BD"/>
  <outline>
    <contour>
      <point x="126" y="501" type="line"/>
      <point x="184" y="501" type="line"/>
      <point x="221" y="58" type="line"/>
      <point x="450" y="501" type="line"/>
      <point x="511" y="501" type="line"/>
      <point x="249" y="0" type="line"/>
      <point x="172" y="0" type="line"/>
    </contour>
  </outline>
</glyph>
<glyph name="xi" format="2">
  <advance width="431"/>
  <unicode hex="03BE"/>
  <outline>
    <contour>
      <point x="499" y="651" type="line"/>
      <point x="377" y="651" type="line" smooth="yes"/>
      <point x="320" y="651"/>
      <point x="277" y="619"/>
      <point x="265" y="555" type="curve" smooth="yes"/>
      <point x="251" y="470"/>
      <point x="294" y="416"/>
      <point x="356" y="405" type="curve" smooth="yes"/>
      <point x="397" y="398" type="line"/>
      <point x="373" y="354" type="line"/>
      <point x="249" y="354" type="line" smooth="yes"/>
      <point x="213" y="354"/>
      <point x="157" y="342"/>
      <point x="138" y="252" type="curve" smooth="yes"/>
      <point x="122" y="176" type="line" smooth="yes"/>
      <point x="102" y="80"/>
      <point x="114" y="32"/>
      <point x="249" y="38" type="curve" smooth="yes"/>
      <point x="286" y="40"/>
      <point x="366" y="49"/>
      <point x="392" y="51" type="curve"/>
      <point x="336" y="-212" type="line"/>
      <point x="286" y="-189" type="line"/>
      <point x="327" y="-4" type="line"/>
      <point x="295" y="-6"/>
      <point x="267" y="-9"/>
      <point x="242" y="-10" type="curve" smooth="yes"/>
      <point x="113" y="-15"/>
      <point x="33" y="21"/>
      <point x="64" y="169" type="curve" smooth="yes"/>
      <point x="82" y="255" type="line" smooth="yes"/>
      <point x="104" y="357"/>
      <point x="174" y="405"/>
      <point x="247" y="405" type="curve" smooth="yes"/>
      <point x="259" y="405" type="line"/>
      <point x="208" y="442"/>
      <point x="201" y="515"/>
      <point x="209" y="558" type="curve" smooth="yes"/>
      <point x="225" y="648"/>
      <point x="293" y="702"/>
      <point x="385" y="702" type="curve" smooth="yes"/>
      <point x="532" y="702" type="line"/>
    </contour>
  </outline>
</glyph>
<glyph name="pi" format="2">
  <advance width="470"/>
  <unicode hex="03C0"/>
  <outline>
    <contour>
      <point x="429" y="69" type="line" smooth="yes"/>
      <point x="425" y="51"/>
      <point x="436" y="37"/>
      <point x="450" y="26" type="curve"/>
      <point x="416" y="-6" type="line"/>
      <point x="416" y="-7"/>
      <point x="362" y="11"/>
      <point x="376" y="78" type="curve" smooth="yes"/>
      <point x="455" y="446" type="line"/>
      <point x="189" y="446" type="line"/>
      <point x="95" y="0" type="line"/>
      <point x="38" y="0" type="line"/>
      <point x="145" y="500" type="line"/>
      <point x="521" y="500" type="line"/>
    </contour>
  </outline>
</glyph>
<glyph name="sigma1" format="2">
  <advance width="341"/>
  <unicode hex="03C2"/>
  <outline>
    <contour>
      <point x="141" y="285" type="line" smooth="yes"/>
      <point x="133" y="245"/>
      <point x="135" y="219"/>
      <point x="168" y="183" type="curve" smooth="yes"/>
      <point x="229" y="117" type="line" smooth="yes"/>
      <point x="259" y="85"/>
      <point x="294" y="47"/>
      <point x="280" y="-19" type="curve" smooth="yes"/>
      <point x="268" y="-73"/>
      <point x="226" y="-111"/>
      <point x="166" y="-143" type="curve"/>
      <point x="148" y="-109" type="line"/>
      <point x="187" y="-87"/>
      <point x="224" y="-55"/>
      <point x="231" y="-22" type="curve" smooth="yes"/>
      <point x="239" y="14"/>
      <point x="229" y="32"/>
      <point x="198" y="64" type="curve" smooth="yes"/>
      <point x="124" y="144" type="line" smooth="yes"/>
      <point x="80" y="189"/>
      <point x="71" y="225"/>
      <point x="83" y="284" type="curve" smooth="yes"/>
      <point x="98" y="354" type="line" smooth="yes"/>
      <point x="122" y="475"/>
      <point x="213" y="505"/>
      <point x="284" y="505" type="curve" smooth="yes"/>
      <point x="363" y="505"/>
      <point x="414" y="469"/>
      <point x="414" y="471" type="curve"/>
      <point x="386" y="430" type="line"/>
      <point x="364" y="440"/>
      <point x="331" y="454"/>
      <point x="292" y="456" type="curve" smooth="yes"/>
      <point x="230" y="458"/>
      <point x="168" y="426"/>
      <point x="153" y="351" type="curve" smooth="yes"/>
    </contour>
  </outline>
</glyph>
<glyph name="upsilon" format="2">
  <advance width="441"/>
  <unicode hex="03C5"/>
  <outline>
    <contour>
      <point x="444" y="185" type="line" smooth="yes"/>
      <point x="420" y="68"/>
      <point x="346" y="-10"/>
      <point x="224" y="-10" type="curve" smooth="yes"/>
      <point x="99" y="-10"/>
      <point x="50" y="77"/>
      <point x="73" y="185" type="curve" smooth="yes"/>
      <point x="141" y="501" type="line"/>
      <point x="198" y="501" type="line"/>
      <point x="129" y="175" type="line" smooth="yes"/>
      <point x="112" y="95"/>
      <point x="153" y="40"/>
      <point x="233" y="40" type="curve" smooth="yes"/>
      <point x="318" y="40"/>
      <point x="371" y="93"/>
      <point x="388" y="175" type="curve" smooth="yes"/>
      <point x="458" y="501" type="line"/>
      <point x="512" y="501" type="line"/>
    </contour>
  </outline>
</glyph>
<glyph name="phi" format="2">
  <advance width="587" height="962"/>
  <unicode hex="03C6"/>
  <outline>
    <contour>
      <point x="96" y="314" type="line" smooth="yes"/>
      <point x="118" y="416"/>
      <point x="171" y="478"/>
      <point x="253" y="504" type="curve"/>
      <point x="273" y="459" type="line"/>
      <point x="211" y="444"/>
      <point x="170" y="396"/>
      <point x="152" y="314" type="curve" smooth="yes"/>
      <point x="124" y="179" type="line" smooth="yes"/>
      <point x="105" y="91"/>
      <point x="148" y="43"/>
      <point x="228" y="43" type="curve" smooth="yes"/>
      <point x="271" y="43" type="line"/>
      <point x="347" y="400" type="line" smooth="yes"/>
      <point x="362" y="468"/>
      <point x="415" y="508"/>
      <point x="478" y="508" type="curve" smooth="yes"/>
      <point x="593" y="508"/>
      <point x="647" y="428"/>
      <point x="621" y="307" type="curve" smooth="yes"/>
      <point x="596" y="189" type="line" smooth="yes"/>
      <point x="570" y="68"/>
      <point x="495" y="-7"/>
      <point x="368" y="-7" type="curve" smooth="yes"/>
      <point x="318" y="-7" type="line"/>
      <point x="273" y="-217" type="line"/>
      <point x="221" y="-189" type="line"/>
      <point x="260" y="-7" type="line"/>
      <point x="217" y="-7" type="line" smooth="yes"/>
      <point x="91" y="-7"/>
      <point x="44" y="68"/>
      <point x="69" y="189" type="curve" smooth="yes"/>
    </contour>
    <contour>
      <point x="378" y="43" type="line" smooth="yes"/>
      <point x="459" y="43"/>
      <point x="522" y="91"/>
      <point x="541" y="179" type="curve" smooth="yes"/>
      <point x="570" y="317" type="line" smooth="yes"/>
      <point x="589" y="405"/>
      <point x="536" y="455"/>
      <point x="475" y="455" type="curve" smooth="yes"/>
      <point x="436" y="455"/>
      <point x="411" y="432"/>
      <point x="402" y="392" type="curve" smooth="yes"/>
      <point x="328" y="43" type="line"/>
    </contour>
  </outline>
</glyph>
<glyph name="chi" format="2">
  <advance width="489"/>
  <unicode hex="03C7"/>
  <outline>
    <contour>
      <point x="357" y="-97" type="line" smooth="yes"/>
      <point x="370" y="-146"/>
      <point x="397" y="-164"/>
      <point x="449" y="-174" type="curve"/>
      <point x="412" y="-212" type="line"/>
      <point x="359" y="-212"/>
      <point x="318" y="-181"/>
      <point x="301" y="-118" type="curve" smooth="yes"/>
      <point x="244" y="92" type="line"/>
      <point x="30" y="-205" type="line"/>
      <point x="-18" y="-181" type="line"/>
      <point x="226" y="155" type="line"/>
      <point x="132" y="500" type="line"/>
      <point x="194" y="500" type="line"/>
      <point x="272" y="217" type="line"/>
      <point x="477" y="500" type="line"/>
      <point x="540" y="500" type="line"/>
      <point x="289" y="153" type="line"/>
    </contour>
  </outline>
</glyph>
<glyph name="uni0409" format="2">
  <advance width="848"/>
  <unicode hex="0409"/>
  <outline>
    <contour>
      <point x="743" y="411" type="line" smooth="yes"/>
      <point x="823" y="411"/>
      <point x="896" y="362"/>
      <point x="872" y="251" type="curve" smooth="yes"/>
      <point x="854" y="167" type="line" smooth="yes"/>
      <point x="822" y="16"/>
      <point x="718" y="-12"/>
      <point x="589" y="-12" type="curve" smooth="yes"/>
      <point x="540" y="-12"/>
      <point x="427" y="-2"/>
      <point x="429" y="-2" type="curve"/>
      <point x="567" y="647" type="line"/>
      <point x="532" y="647" type="line" smooth="yes"/>
      <point x="479" y="647"/>
      <point x="443" y="621"/>
      <point x="421" y="578" type="curve" smooth="yes"/>
      <point x="180" y="112" type="line" smooth="yes"/>
      <point x="143" y="40"/>
      <point x="114" y="4"/>
      <point x="51" y="-11" type="curve"/>
      <point x="20" y="20" type="line"/>
      <point x="82" y="38"/>
      <point x="117" y="102"/>
      <point x="128" y="124" type="curve" smooth="yes"/>
      <point x="350" y="557" type="line" smooth="yes"/>
      <point x="372" y="600"/>
      <point x="417" y="700"/>
      <point x="537" y="700" type="curve" smooth="yes"/>
      <point x="635" y="700" type="line"/>
      <point x="573" y="411" type="line"/>
    </contour>
    <contour>
      <point x="801" y="174" type="curve" smooth="yes"/>
      <point x="817" y="249" type="line" smooth="yes"/>
      <point x="836" y="340"/>
      <point x="781" y="356"/>
      <point x="746" y="356" type="curve" smooth="yes"/>
      <point x="562" y="356" type="line"/>
      <point x="495" y="44" type="line"/>
      <point x="495" y="44"/>
      <point x="582" y="38"/>
      <point x="603" y="38" type="curve" smooth="yes"/>
      <point x="720" y="38"/>
      <point x="782" y="83"/>
    </contour>
  </outline>
</glyph>
<glyph name="uni040F" format="2">
  <advance width="518"/>
  <unicode hex="040F"/>
  <outline>
    <contour>
      <point x="623" y="700" type="line"/>
      <point x="474" y="0" type="line"/>
      <point x="284" y="0" type="line"/>
      <point x="259" y="-107" type="line"/>
      <point x="212" y="-107" type="line"/>
      <point x="233" y="0" type="line"/>
      <point x="43" y="0" type="line"/>
      <point x="192" y="700" type="line"/>
      <point x="250" y="700" type="line"/>
      <point x="113" y="57" type="line"/>
      <point x="429" y="57" type="line"/>
      <point x="566" y="700" type="line"/>
    </contour>
  </outline>
</glyph>
<glyph name="uni0414" format="2">
  <advance width="555"/>
  <unicode hex="0414"/>
  <outline>
    <contour>
      <point x="494" y="56" type="line"/>
      <point x="556" y="56" type="line"/>
      <point x="521" y="-106" type="line"/>
      <point x="475" y="-106" type="line"/>
      <point x="488" y="-1" type="line"/>
      <point x="66" y="-1" type="line"/>
      <point x="33" y="-106" type="line"/>
      <point x="-12" y="-106" type="line"/>
      <point x="23" y="56" type="line"/>
      <point x="87" y="56" type="line"/>
      <point x="344" y="557" type="line" smooth="yes"/>
      <point x="367" y="600"/>
      <point x="409" y="700"/>
      <point x="529" y="700" type="curve" smooth="yes"/>
      <point x="631" y="700" type="line"/>
    </contour>
    <contour>
      <point x="437" y="56" type="line"/>
      <point x="563" y="647" type="line"/>
      <point x="524" y="647" type="line" smooth="yes"/>
      <point x="471" y="647"/>
      <point x="435" y="621"/>
      <point x="413" y="578" type="curve" smooth="yes"/>
      <point x="143" y="56" type="line"/>
    </contour>
  </outline>
</glyph>
<glyph name="uni041B" format="2">
  <advance width="535"/>
  <unicode hex="041B"/>
  <outline>
    <contour>
      <point x="550" y="700" type="curve" smooth="yes"/>
      <point x="652" y="700" type="line"/>
      <point x="503" y="0" type="line"/>
      <point x="446" y="0" type="line"/>
      <point x="584" y="647" type="line"/>
      <point x="545" y="647" type="line" smooth="yes"/>
      <point x="492" y="647"/>
      <point x="456" y="621"/>
      <point x="434" y="578" type="curve" smooth="yes"/>
      <point x="193" y="112" type="line" smooth="yes"/>
      <point x="156" y="40"/>
      <point x="127" y="4"/>
      <point x="64" y="-11" type="curve"/>
      <point x="33" y="20" type="line"/>
      <point x="95" y="38"/>
      <point x="132" y="102"/>
      <point x="143" y="124" type="curve" smooth="yes"/>
      <point x="365" y="557" type="line" smooth="yes"/>
      <point x="388" y="600"/>
      <point x="430" y="700"/>
    </contour>
  </outline>
</glyph>
<glyph name="uni0423" format="1">
  <advance width="487" height="962"/>
  <unicode hex="0423"/>
  <outline>
    <contour>
      <point x="563" y="700" type="line"/>
      <point x="627" y="700" type="line"/>
      <point x="228" y="111" type="line" smooth="yes"/>
      <point x="178" y="39"/>
      <point x="142" y="3"/>
      <point x="75" y="-12" type="curve"/>
      <point x="45" y="19" type="line"/>
      <point x="110" y="37"/>
      <point x="158" y="101"/>
      <point x="173" y="123" type="curve" smooth="yes"/>
      <point x="267" y="262" type="line"/>
      <point x="156" y="700" type="line"/>
      <point x="214" y="700" type="line"/>
      <point x="308" y="325" type="line"/>
    </contour>
  </outline>
</glyph>
<glyph name="uni0428" format="1">
  <advance width="641" height="962"/>
  <unicode hex="0428"/>
  <outline>
    <contour>
      <point x="691" y="700" type="line"/>
      <point x="749" y="700" type="line"/>
      <point x="600" y="0" type="line"/>
      <point x="44" y="0" type="line"/>
      <point x="193" y="700" type="line"/>
      <point x="251" y="700" type="line"/>
      <point x="114" y="57" type="line"/>
      <point x="305" y="57" type="line"/>
      <point x="442" y="700" type="line"/>
      <point x="500" y="700" type="line"/>
      <point x="363" y="57" type="line"/>
      <point x="554" y="57" type="line"/>
    </contour>
  </outline>
</glyph>
<glyph name="uni042A" format="1">
  <advance width="520" height="962"/>
  <unicode hex="042A"/>
  <outline>
    <component base="uni042C" xOffset="64"/>
    <contour>
      <point x="149" y="700" type="line"/>
      <point x="283" y="700" type="line"/>
      <point x="272" y="649" type="line"/>
      <point x="246" y="649" type="line"/>
      <point x="138" y="651" type="line"/>
    </contour>
  </outline>
</glyph>
<glyph name="uni042C" format="1">
  <advance width="455" height="962"/>
  <unicode hex="042C"/>
  <outline>
    <contour>
      <point x="355" y="412" type="line" smooth="yes"/>
      <point x="434" y="412"/>
      <point x="505" y="363"/>
      <point x="481" y="251" type="curve" smooth="yes"/>
      <point x="464" y="168" type="line" smooth="yes"/>
      <point x="431" y="17"/>
      <point x="337" y="-11"/>
      <point x="208" y="-11" type="curve" smooth="yes"/>
      <point x="149" y="-11"/>
      <point x="41" y="-1"/>
      <point x="43" y="-1" type="curve"/>
      <point x="192" y="700" type="line"/>
      <point x="249" y="700" type="line"/>
      <point x="187" y="412" type="line"/>
    </contour>
    <contour>
      <point x="410" y="175" type="curve" smooth="yes"/>
      <point x="426" y="249" type="line" smooth="yes"/>
      <point x="445" y="341"/>
      <point x="390" y="357"/>
      <point x="355" y="357" type="curve" smooth="yes"/>
      <point x="176" y="357" type="line"/>
      <point x="109" y="45" type="line"/>
      <point x="115" y="45"/>
      <point x="154" y="38"/>
      <point x="214" y="38" type="curve" smooth="yes"/>
      <point x="312" y="38"/>
      <point x="384" y="51"/>
    </contour>
  </outline>
</glyph>
<glyph name="uni042D" format="1">
  <advance width="423" height="962"/>
  <unicode hex="042D"/>
  <outline>
    <contour>
      <point x="212" y="639" type="curve"/>
      <point x="203" y="677" type="line"/>
      <point x="250" y="699"/>
      <point x="300" y="710"/>
      <point x="352" y="710" type="curve" smooth="yes"/>
      <point x="462" y="710"/>
      <point x="534" y="650"/>
      <point x="504" y="510" type="curve" smooth="yes"/>
      <point x="435" y="184" type="line" smooth="yes"/>
      <point x="407" y="50"/>
      <point x="319" y="-10"/>
      <point x="193" y="-10" type="curve" smooth="yes"/>
      <point x="142" y="-10"/>
      <point x="90" y="1"/>
      <point x="39" y="23" type="curve"/>
      <point x="61" y="69" type="line"/>
      <point x="113" y="51"/>
      <point x="161" y="40"/>
      <point x="200" y="40" type="curve" smooth="yes"/>
      <point x="301" y="40"/>
      <point x="356" y="81"/>
      <point x="379" y="186" type="curve" smooth="yes"/>
      <point x="448" y="514" type="line" smooth="yes"/>
      <point x="471" y="619"/>
      <point x="421" y="660"/>
      <point x="323" y="660" type="curve" smooth="yes"/>
      <point x="288" y="660"/>
      <point x="252" y="654"/>
    </contour>
    <contour>
      <point x="437" y="412" type="line"/>
      <point x="425" y="357" type="line"/>
      <point x="243" y="357" type="line"/>
      <point x="237" y="412" type="line"/>
    </contour>
  </outline>
</glyph>
<glyph name="uni042E" format="2">
  <advance width="692" height="962"/>
  <unicode hex="042E"/>
  <outline>
    <component base="O" xOffset="205"/>
    <component base="I"/>
    <contour>
      <point x="348" y="380" type="line"/>
      <point x="335" y="322" type="line"/>
      <point x="182" y="322" type="line"/>
      <point x="195" y="380" type="line"/>
    </contour>
  </outline>
</glyph>
<glyph name="uni042F" format="2">
  <advance width="510" height="962"/>
  <unicode hex="042F"/>
  <outline>
    <contour>
      <point x="390" y="700" type="curve" smooth="yes"/>
      <point x="626" y="700" type="line"/>
      <point x="477" y="0" type="line"/>
      <point x="420" y="0" type="line"/>
      <point x="472" y="245" type="line"/>
      <point x="293" y="245" type="line" smooth="yes"/>
      <point x="273" y="245"/>
      <point x="254" y="246"/>
      <point x="239" y="250" type="curve"/>
      <point x="95" y="0" type="line"/>
      <point x="38" y="0" type="line"/>
      <point x="191" y="265" type="line"/>
      <point x="135" y="296"/>
      <point x="119" y="360"/>
      <point x="143" y="474" type="curve" smooth="yes"/>
      <point x="179" y="645"/>
      <point x="263" y="700"/>
    </contour>
    <contour>
      <point x="300" y="300" type="curve" smooth="yes"/>
      <point x="484" y="300" type="line"/>
      <point x="558" y="647" type="line"/>
      <point x="374" y="647" type="line" smooth="yes"/>
      <point x="296" y="647"/>
      <point x="230" y="615"/>
      <point x="200" y="474" type="curve" smooth="yes"/>
      <point x="167" y="321"/>
      <point x="224" y="300"/>
    </contour>
  </outline>
</glyph>
<glyph name="uni0431" format="2">
  <advance width="430"/>
  <unicode hex="0431"/>
  <outline>
    <contour>
      <point x="336" y="512" type="curve" smooth="yes"/>
      <point x="447" y="512"/>
      <point x="493" y="447"/>
      <point x="467" y="324" type="curve" smooth="yes"/>
      <point x="438" y="189" type="line" smooth="yes"/>
      <point x="412" y="67"/>
      <point x="331" y="-8"/>
      <point x="211" y="-8" type="curve" smooth="yes"/>
      <point x="92" y="-8"/>
      <point x="40" y="62"/>
      <point x="67" y="189" type="curve" smooth="yes"/>
      <point x="128" y="473" type="line" smooth="yes"/>
      <point x="140" y="533"/>
      <point x="169" y="584"/>
      <point x="214" y="626" type="curve" smooth="yes"/>
      <point x="255" y="663"/>
      <point x="318" y="694"/>
      <point x="384" y="703" type="curve"/>
      <point x="385" y="674" type="line"/>
      <point x="320" y="660"/>
      <point x="274" y="625"/>
      <point x="250" y="602" type="curve" smooth="yes"/>
      <point x="222" y="574"/>
      <point x="198" y="535"/>
      <point x="187" y="483" type="curve" smooth="yes"/>
      <point x="177" y="438" type="line"/>
      <point x="208" y="481"/>
      <point x="274" y="512"/>
    </contour>
    <contour>
      <point x="320" y="459" type="curve" smooth="yes"/>
      <point x="243" y="459"/>
      <point x="172" y="412"/>
      <point x="154" y="327" type="curve" smooth="yes"/>
      <point x="124" y="189" type="line" smooth="yes"/>
      <point x="103" y="91"/>
      <point x="137" y="44"/>
      <point x="225" y="44" type="curve" smooth="yes"/>
      <point x="310" y="44"/>
      <point x="361" y="91"/>
      <point x="382" y="189" type="curve" smooth="yes"/>
      <point x="413" y="332" type="line" smooth="yes"/>
      <point x="430" y="416"/>
      <point x="397" y="459"/>
    </contour>
  </outline>
</glyph>
<glyph name="uni0432" format="1">
  <advance width="448" height="962"/>
  <unicode hex="0432"/>
  <outline>
    <contour>
      <point x="392" y="279" type="curve"/>
      <point x="441" y="257"/>
      <point x="461" y="203"/>
      <point x="450" y="149" type="curve" smooth="yes"/>
      <point x="432" y="66"/>
      <point x="359" y="-11"/>
      <point x="233" y="-11" type="curve" smooth="yes"/>
      <point x="142" y="-11"/>
      <point x="35" y="0"/>
      <point x="35" y="0" type="curve"/>
      <point x="141" y="501" type="line"/>
      <point x="141" y="501"/>
      <point x="227" y="511"/>
      <point x="334" y="511" type="curve" smooth="yes"/>
      <point x="441" y="511"/>
      <point x="487" y="450"/>
      <point x="472" y="379" type="curve" smooth="yes"/>
      <point x="463" y="337"/>
      <point x="430" y="298"/>
    </contour>
    <contour>
      <point x="324" y="461" type="curve" smooth="yes"/>
      <point x="273" y="461"/>
      <point x="189" y="455"/>
      <point x="189" y="455" type="curve"/>
      <point x="156" y="301" type="line"/>
      <point x="319" y="301" type="line" smooth="yes"/>
      <point x="363" y="301"/>
      <point x="404" y="340"/>
      <point x="413" y="382" type="curve" smooth="yes"/>
      <point x="426" y="444"/>
      <point x="375" y="461"/>
    </contour>
    <contour>
      <point x="234" y="42" type="curve" smooth="yes"/>
      <point x="317" y="42"/>
      <point x="380" y="87"/>
      <point x="393" y="146" type="curve" smooth="yes"/>
      <point x="409" y="222"/>
      <point x="346" y="247"/>
      <point x="307" y="247" type="curve" smooth="yes"/>
      <point x="145" y="247" type="line"/>
      <point x="102" y="46" type="line"/>
      <point x="102" y="46"/>
      <point x="169" y="42"/>
    </contour>
  </outline>
</glyph>
<glyph name="uni0436" format="2">
  <advance width="533"/>
  <unicode hex="0436"/>
  <outline>
    <contour>
      <point x="622" y="500" type="line"/>
      <point x="416" y="250" type="line"/>
      <point x="514" y="0" type="line"/>
      <point x="450" y="0" type="line"/>
      <point x="365" y="223" type="line"/>
      <point x="343" y="223" type="line"/>
      <point x="295" y="0" type="line"/>
      <point x="238" y="0" type="line"/>
      <point x="286" y="223" type="line"/>
      <point x="271" y="223" type="line"/>
      <point x="84" y="0" type="line"/>
      <point x="17" y="0" type="line"/>
      <point x="230" y="250" type="line"/>
      <point x="130" y="500" type="line"/>
      <point x="192" y="500" type="line"/>
      <point x="277" y="278" type="line"/>
      <point x="297" y="278" type="line"/>
      <point x="344" y="500" type="line"/>
      <point x="401" y="500" type="line"/>
      <point x="354" y="278" type="line"/>
      <point x="374" y="278" type="line"/>
      <point x="559" y="500" type="line"/>
    </contour>
  </outline>
</glyph>
<glyph name="uni0438" format="1">
  <advance width="443" height="962"/>
  <unicode hex="0438"/>
  <outline>
    <contour>
      <point x="201" y="500" type="line"/>
      <point x="113" y="85" type="line"/>
      <point x="444" y="500" type="line"/>
      <point x="513" y="500" type="line"/>
      <point x="407" y="0" type="line"/>
      <point x="350" y="0" type="line"/>
      <point x="438" y="415" type="line"/>
      <point x="107" y="0" type="line"/>
      <point x="38" y="0" type="line"/>
      <point x="144" y="500" type="line"/>
    </contour>
  </outline>
</glyph>
<glyph name="uni043C" format="1">
  <advance width="589" height="962"/>
  <unicode hex="043C"/>
  <outline>
    <contour>
      <point x="585" y="500" type="line"/>
      <point x="656" y="500" type="line"/>
      <point x="550" y="0" type="line"/>
      <point x="493" y="0" type="line"/>
      <point x="579" y="403" type="line"/>
      <point x="323" y="0" type="line"/>
      <point x="266" y="0" type="line"/>
      <point x="179" y="404" type="line"/>
      <point x="93" y="0" type="line"/>
      <point x="36" y="0" type="line"/>
      <point x="142" y="500" type="line"/>
      <point x="214" y="500" type="line"/>
      <point x="308" y="66" type="line"/>
    </contour>
  </outline>
</glyph>
<glyph name="uni043D" format="2">
  <advance width="443" height="962"/>
  <unicode hex="043D"/>
  <outline>
    <contour>
      <point x="413" y="299" type="line"/>
      <point x="455" y="500" type="line"/>
      <point x="512" y="500" type="line"/>
      <point x="406" y="0" type="line"/>
      <point x="349" y="0" type="line"/>
      <point x="401" y="245" type="line"/>
      <point x="146" y="245" type="line"/>
      <point x="94" y="0" type="line"/>
      <point x="37" y="0" type="line"/>
      <point x="143" y="500" type="line"/>
      <point x="200" y="500" type="line"/>
      <point x="158" y="299" type="line"/>
    </contour>
  </outline>
</glyph>
<glyph name="uni0448" format="2">
  <advance width="615" height="962"/>
  <unicode hex="0448"/>
  <outline>
    <contour>
      <point x="619" y="500" type="line"/>
      <point x="676" y="500" type="line"/>
      <point x="570" y="0" type="line"/>
      <point x="44" y="0" type="line"/>
      <point x="150" y="500" type="line"/>
      <point x="208" y="500" type="line"/>
      <point x="114" y="57" type="line"/>
      <point x="290" y="57" type="line"/>
      <point x="384" y="500" type="line"/>
      <point x="442" y="500" type="line"/>
      <point x="348" y="57" type="line"/>
      <point x="525" y="57" type="line"/>
    </contour>
  </outline>
</glyph>
<glyph name="uni0449" format="2">
  <advance width="615" height="962"/>
  <unicode hex="0449"/>
  <outline>
    <component base="uni0448"/>
    <contour>
      <point x="554" y="57" type="line"/>
      <point x="622" y="57" type="line"/>
      <point x="588" y="-105" type="line"/>
      <point x="542" y="-105" type="line"/>
      <point x="554" y="0" type="line"/>
      <point x="542" y="0" type="line"/>
    </contour>
  </outline>
</glyph>
<glyph name="uni044C" format="2">
  <advance width="456" height="962"/>
  <unicode hex="044C"/>
  <outline>
    <contour>
      <point x="336" y="303" type="line" smooth="yes"/>
      <point x="416" y="303"/>
      <point x="477" y="249"/>
      <point x="456" y="152" type="curve" smooth="yes"/>
      <point x="439" y="69"/>
      <point x="365" y="-8"/>
      <point x="239" y="-8" type="curve" smooth="yes"/>
      <point x="154" y="-8"/>
      <point x="54" y="2"/>
      <point x="41" y="3" type="curve"/>
      <point x="146" y="500" type="line"/>
      <point x="203" y="500" type="line"/>
      <point x="161" y="303" type="line"/>
    </contour>
    <contour>
      <point x="241" y="45" type="curve" smooth="yes"/>
      <point x="324" y="45"/>
      <point x="387" y="90"/>
      <point x="400" y="149" type="curve" smooth="yes"/>
      <point x="416" y="227"/>
      <point x="365" y="248"/>
      <point x="330" y="248" type="curve" smooth="yes"/>
      <point x="150" y="248" type="line"/>
      <point x="107" y="49" type="line"/>
      <point x="107" y="49"/>
      <point x="176" y="45"/>
    </contour>
  </outline>
</glyph>
<glyph name="uni044D" format="2">
  <advance width="378"/>
  <unicode hex="044D"/>
  <outline>
    <contour>
      <point x="133" y="433" type="curve"/>
      <point x="129" y="478" type="line"/>
      <point x="175" y="497"/>
      <point x="224" y="510"/>
      <point x="269" y="510" type="curve" smooth="yes"/>
      <point x="393" y="510"/>
      <point x="439" y="433"/>
      <point x="415" y="319" type="curve" smooth="yes"/>
      <point x="384" y="174" type="line" smooth="yes"/>
      <point x="357" y="47"/>
      <point x="270" y="-9"/>
      <point x="155" y="-11" type="curve" smooth="yes"/>
      <point x="110" y="-12"/>
      <point x="65" y="-6"/>
      <point x="26" y="5" type="curve"/>
      <point x="48" y="55" type="line"/>
      <point x="46" y="56"/>
      <point x="105" y="41"/>
      <point x="164" y="41" type="curve" smooth="yes"/>
      <point x="260" y="41"/>
      <point x="311" y="84"/>
      <point x="332" y="186" type="curve" smooth="yes"/>
      <point x="340.2" y="227" type="line"/>
      <point x="142" y="227" type="line"/>
      <point x="134" y="281" type="line"/>
      <point x="351" y="281" type="line"/>
      <point x="357" y="311" type="line" smooth="yes"/>
      <point x="374" y="397"/>
      <point x="351" y="459"/>
      <point x="257" y="459" type="curve" smooth="yes"/>
      <point x="217" y="459"/>
      <point x="171" y="449"/>
    </contour>
  </outline>
</glyph>
<glyph name="uni044E" format="2">
  <advance width="621" height="962"/>
  <unicode hex="044E"/>
  <outline>
    <component base="o" xOffset="190"/>
    <component base="dotlessi"/>
    <contour>
      <point x="127" y="280" type="line"/>
      <point x="306" y="280" type="line"/>
      <point x="293" y="222" type="line"/>
      <point x="114" y="222" type="line"/>
    </contour>
  </outline>
</glyph>
<glyph name="uni044F" format="2">
  <advance width="453" height="962"/>
  <unicode hex="044F"/>
  <outline>
    <contour>
      <point x="319" y="510" type="curve" smooth="yes"/>
      <point x="410" y="510"/>
      <point x="516" y="499"/>
      <point x="516" y="499" type="curve"/>
      <point x="410" y="0" type="line"/>
      <point x="355" y="0" type="line"/>
      <point x="397" y="197" type="line"/>
      <point x="242" y="197" type="line" smooth="yes"/>
      <point x="237" y="197"/>
      <point x="211" y="197"/>
      <point x="206" y="198" type="curve"/>
      <point x="90" y="0" type="line"/>
      <point x="33" y="0" type="line"/>
      <point x="157" y="212" type="line"/>
      <point x="113" y="233"/>
      <point x="87" y="282"/>
      <point x="101" y="350" type="curve" smooth="yes"/>
      <point x="119" y="433"/>
      <point x="192" y="510"/>
    </contour>
    <contour>
      <point x="229" y="253" type="curve" smooth="yes"/>
      <point x="409" y="253" type="line"/>
      <point x="451" y="453" type="line"/>
      <point x="451" y="453"/>
      <point x="383" y="457"/>
      <point x="318" y="457" type="curve" smooth="yes"/>
      <point x="234" y="457"/>
      <point x="171" y="412"/>
      <point x="158" y="353" type="curve" smooth="yes"/>
      <point x="141" y="275"/>
      <point x="194" y="253"/>
    </contour>
  </outline>
</glyph>
<glyph name="uni0459" format="2">
  <advance width="795" height="962"/>
  <unicode hex="0459"/>
  <outline>
    <contour>
      <point x="674" y="303" type="line" smooth="yes"/>
      <point x="754" y="303"/>
      <point x="815" y="249"/>
      <point x="794" y="152" type="curve" smooth="yes"/>
      <point x="777" y="69"/>
      <point x="703" y="-8"/>
      <point x="577" y="-8" type="curve" smooth="yes"/>
      <point x="492" y="-8"/>
      <point x="385" y="3"/>
      <point x="385" y="3" type="curve"/>
      <point x="479" y="447" type="line"/>
      <point x="414" y="447" type="line" smooth="yes"/>
      <point x="361" y="447"/>
      <point x="325" y="421"/>
      <point x="303" y="378" type="curve" smooth="yes"/>
      <point x="166" y="112" type="line" smooth="yes"/>
      <point x="129" y="40"/>
      <point x="100" y="4"/>
      <point x="37" y="-11" type="curve"/>
      <point x="6" y="20" type="line"/>
      <point x="68" y="38"/>
      <point x="105" y="102"/>
      <point x="116" y="124" type="curve" smooth="yes"/>
      <point x="235" y="357" type="line" smooth="yes"/>
      <point x="257" y="400"/>
      <point x="299" y="500"/>
      <point x="419" y="500" type="curve" smooth="yes"/>
      <point x="547" y="500" type="line"/>
      <point x="505" y="303" type="line"/>
    </contour>
    <contour>
      <point x="579" y="45" type="curve" smooth="yes"/>
      <point x="662" y="45"/>
      <point x="725" y="90"/>
      <point x="738" y="149" type="curve" smooth="yes"/>
      <point x="754" y="227"/>
      <point x="703" y="248"/>
      <point x="668" y="248" type="curve" smooth="yes"/>
      <point x="494" y="248" type="line"/>
      <point x="451" y="49" type="line"/>
      <point x="451" y="49"/>
      <point x="514" y="45"/>
    </contour>
  </outline>
</glyph>
<glyph name="uni045A" format="2">
  <advance width="760"/>
  <unicode hex="045A"/>
  <outline>
    <contour>
      <point x="641" y="303" type="line" smooth="yes"/>
      <point x="721" y="303"/>
      <point x="783" y="248"/>
      <point x="762" y="151" type="curve" smooth="yes"/>
      <point x="744" y="68"/>
      <point x="670" y="-9"/>
      <point x="544" y="-9" type="curve" smooth="yes"/>
      <point x="462" y="-9"/>
      <point x="343" y="2"/>
      <point x="343" y="2" type="curve"/>
      <point x="396" y="248" type="line"/>
      <point x="142" y="248" type="line"/>
      <point x="89" y="0" type="line"/>
      <point x="32" y="0" type="line"/>
      <point x="138" y="500" type="line"/>
      <point x="195" y="500" type="line"/>
      <point x="153" y="303" type="line"/>
      <point x="407" y="303" type="line"/>
      <point x="449" y="500" type="line"/>
      <point x="506" y="500" type="line"/>
      <point x="464" y="303" type="line"/>
    </contour>
    <contour>
      <point x="545" y="44" type="curve" smooth="yes"/>
      <point x="628" y="44"/>
      <point x="693" y="89"/>
      <point x="705" y="148" type="curve" smooth="yes"/>
      <point x="722" y="226"/>
      <point x="670" y="248"/>
      <point x="635" y="248" type="curve" smooth="yes"/>
      <point x="453" y="248" type="line"/>
      <point x="410" y="48" type="line"/>
      <point x="410" y="48"/>
      <point x="480" y="44"/>
    </contour>
  </outline>
</glyph>
<glyph name="uni045F" format="1">
  <advance width="444" height="962"/>
  <unicode hex="045F"/>
  <outline>
    <contour>
      <point x="510" y="500" type="line"/>
      <point x="404" y="0" type="line"/>
      <point x="245" y="0" type="line"/>
      <point x="220" y="-107" type="line"/>
      <point x="173" y="-107" type="line"/>
      <point x="194" y="0" type="line"/>
      <point x="35" y="0" type="line"/>
      <point x="141" y="500" type="line"/>
      <point x="199" y="500" type="line"/>
      <point x="105" y="57" type="line"/>
      <point x="359" y="57" type="line"/>
      <point x="453" y="500" type="line"/>
    </contour>
  </outline>
</glyph>
<glyph name="uni046A" format="1">
  <advance width="602" height="962"/>
  <unicode hex="046A"/>
  <outline>
    <contour>
      <point x="452" y="376" type="line" smooth="yes"/>
      <point x="578" y="376"/>
      <point x="628" y="305"/>
      <point x="602" y="184" type="curve" smooth="yes"/>
      <point x="563" y="0" type="line"/>
      <point x="507" y="0" type="line"/>
      <point x="548" y="194" type="line" smooth="yes"/>
      <point x="567" y="282"/>
      <point x="521" y="325"/>
      <point x="441" y="325" type="curve" smooth="yes"/>
      <point x="395" y="325" type="line"/>
      <point x="326" y="0" type="line"/>
      <point x="269" y="0" type="line"/>
      <point x="338" y="325" type="line"/>
      <point x="296" y="325" type="line" smooth="yes"/>
      <point x="216" y="325"/>
      <point x="152" y="282"/>
      <point x="133" y="194" type="curve" smooth="yes"/>
      <point x="92" y="0" type="line"/>
      <point x="36" y="0" type="line"/>
      <point x="75" y="184" type="line" smooth="yes"/>
      <point x="101" y="305"/>
      <point x="181" y="376"/>
      <point x="307" y="376" type="curve" smooth="yes"/>
      <point x="332" y="376" type="line"/>
      <point x="211" y="700" type="line"/>
      <point x="684" y="700" type="line"/>
      <point x="425" y="376" type="line"/>
    </contour>
    <contour>
      <point x="383" y="405" type="line"/>
      <point x="577" y="643" type="line"/>
      <point x="298" y="643" type="line"/>
    </contour>
  </outline>
</glyph>
<glyph name="uni046B" format="2">
  <advance width="578"/>
  <unicode hex="046B"/>
  <outline>
    <contour>
      <point x="429" y="300" type="line" smooth="yes"/>
      <point x="555" y="300"/>
      <point x="600" y="225"/>
      <point x="574" y="104" type="curve" smooth="yes"/>
      <point x="552" y="0" type="line"/>
      <point x="499" y="0" type="line"/>
      <point x="523" y="114" type="line" smooth="yes"/>
      <point x="542" y="202"/>
      <point x="497" y="250"/>
      <point x="418" y="250" type="curve" smooth="yes"/>
      <point x="368" y="250" type="line"/>
      <point x="315" y="0" type="line"/>
      <point x="258" y="0" type="line"/>
      <point x="311" y="250" type="line"/>
      <point x="267" y="250" type="line" smooth="yes"/>
      <point x="187" y="250"/>
      <point x="124" y="202"/>
      <point x="105" y="114" type="curve" smooth="yes"/>
      <point x="81" y="0" type="line"/>
      <point x="25" y="0" type="line"/>
      <point x="47" y="104" type="line" smooth="yes"/>
      <point x="73" y="225"/>
      <point x="151" y="300"/>
      <point x="278" y="300" type="curve" smooth="yes"/>
      <point x="292" y="300" type="line"/>
      <point x="175" y="500" type="line"/>
      <point x="608" y="500" type="line"/>
      <point x="409" y="300" type="line"/>
    </contour>
    <contour>
      <point x="354" y="316" type="line"/>
      <point x="479" y="443" type="line"/>
      <point x="282" y="443" type="line"/>
    </contour>
  </outline>
</glyph>
<glyph name="uni0475" format="1">
  <advance width="449" height="962"/>
  <unicode hex="0475"/>
  <outline>
    <contour>
      <point x="522" y="512" type="curve"/>
      <point x="552" y="478" type="line"/>
      <point x="483" y="457"/>
      <point x="462" y="417"/>
      <point x="446" y="388" type="curve" smooth="yes"/>
      <point x="244" y="0" type="line"/>
      <point x="172" y="0" type="line"/>
      <point x="125" y="500" type="line"/>
      <point x="183" y="500" type="line"/>
      <point x="223" y="71" type="line"/>
      <point x="381" y="376" type="line" smooth="yes"/>
      <point x="423" y="457"/>
      <point x="456" y="499"/>
    </contour>
  </outline>
</glyph>
<glyph name="uni0492" format="2">
  <advance width="392" height="962"/>
  <unicode hex="0492"/>
  <outline>
    <component base="Gamma" xOffset="10"/>
    <contour>
      <point x="88" y="414" type="line"/>
      <point x="391" y="414" type="line"/>
      <point x="379" y="356" type="line"/>
      <point x="76" y="356" type="line"/>
    </contour>
  </outline>
</glyph>
<glyph name="uni0494" format="1">
  <advance width="446" height="962"/>
  <unicode hex="0494"/>
  <outline>
    <component base="Gamma"/>
    <contour>
      <point x="345" y="510" type="curve" smooth="yes"/>
      <point x="456" y="510"/>
      <point x="507" y="452"/>
      <point x="485" y="346" type="curve" smooth="yes"/>
      <point x="439" y="132" type="line" smooth="yes"/>
      <point x="422" y="54"/>
      <point x="381" y="9"/>
      <point x="303" y="-13" type="curve"/>
      <point x="294" y="30" type="line"/>
      <point x="343" y="45"/>
      <point x="372" y="79"/>
      <point x="383" y="132" type="curve" smooth="yes"/>
      <point x="428" y="343" type="line" smooth="yes"/>
      <point x="447" y="434"/>
      <point x="388" y="460"/>
      <point x="324" y="460" type="curve" smooth="yes"/>
      <point x="278" y="460"/>
      <point x="233" y="448"/>
      <point x="187" y="425" type="curve"/>
      <point x="196" y="467" type="line"/>
      <point x="240" y="493"/>
      <point x="295" y="510"/>
    </contour>
  </outline>
</glyph>
<glyph name="uni0495" format="2">
  <advance width="415"/>
  <unicode hex="0495"/>
  <outline>
    <component base="uni0433"/>
    <contour>
      <point x="282" y="304" type="curve" smooth="yes"/>
      <point x="381" y="304"/>
      <point x="435" y="250"/>
      <point x="413" y="144" type="curve" smooth="yes"/>
      <point x="369" y="-62" type="line" smooth="yes"/>
      <point x="351" y="-144"/>
      <point x="312" y="-184"/>
      <point x="231" y="-209" type="curve"/>
      <point x="224" y="-166" type="line"/>
      <point x="274" y="-149"/>
      <point x="303" y="-109"/>
      <point x="313" y="-61" type="curve" smooth="yes"/>
      <point x="356" y="141" type="line" smooth="yes"/>
      <point x="375" y="232"/>
      <point x="318" y="254"/>
      <point x="261" y="254" type="curve" smooth="yes"/>
      <point x="220" y="254"/>
      <point x="178" y="242"/>
      <point x="135" y="219" type="curve"/>
      <point x="143" y="261" type="line"/>
      <point x="185" y="287"/>
      <point x="237" y="304"/>
    </contour>
  </outline>
</glyph>
<glyph name="uni0496" format="1">
  <advance width="680" height="962"/>
  <unicode hex="0496"/>
  <outline>
    <component base="uni0416"/>
    <contour>
      <point x="603" y="57" type="line"/>
      <point x="671" y="57" type="line"/>
      <point x="637" y="-105" type="line"/>
      <point x="591" y="-105" type="line"/>
      <point x="603" y="0" type="line"/>
      <point x="591" y="0" type="line"/>
    </contour>
  </outline>
</glyph>
<glyph name="uni0497" format="1">
  <advance width="533" height="962"/>
  <unicode hex="0497"/>
  <outline>
    <component base="uni0436"/>
    <contour>
      <point x="463" y="57" type="line"/>
      <point x="531" y="57" type="line"/>
      <point x="497" y="-105" type="line"/>
      <point x="451" y="-105" type="line"/>
      <point x="463" y="0" type="line"/>
      <point x="451" y="0" type="line"/>
    </contour>
  </outline>
</glyph>
<glyph name="uni049A" format="1">
  <advance width="459" height="962"/>
  <unicode hex="049A"/>
  <outline>
    <component base="K"/>
    <contour>
      <point x="386" y="57" type="line"/>
      <point x="454" y="57" type="line"/>
      <point x="420" y="-105" type="line"/>
      <point x="374" y="-105" type="line"/>
      <point x="386" y="0" type="line"/>
      <point x="374" y="0" type="line"/>
    </contour>
  </outline>
</glyph>
<glyph name="uni049B" format="1">
  <advance width="434" height="962"/>
  <unicode hex="049B"/>
  <outline>
    <contour>
      <point x="400" y="0" type="line"/>
      <point x="335" y="0" type="line"/>
      <point x="204" y="254" type="line"/>
      <point x="137" y="198" type="line"/>
      <point x="95" y="0" type="line"/>
      <point x="38" y="0" type="line"/>
      <point x="147" y="512" type="line"/>
      <point x="201" y="499" type="line"/>
      <point x="153" y="274" type="line"/>
      <point x="409" y="501" type="line"/>
      <point x="483" y="501" type="line"/>
      <point x="251" y="296" type="line"/>
    </contour>
    <contour>
      <point x="351" y="48" type="line"/>
      <point x="429" y="48" type="line"/>
      <point x="397" y="-104" type="line"/>
      <point x="351" y="-104" type="line"/>
      <point x="363" y="0" type="line"/>
      <point x="341" y="0" type="line"/>
    </contour>
  </outline>
</glyph>
<glyph name="uni049C" format="2">
  <advance width="535"/>
  <unicode hex="049C"/>
  <outline>
    <contour>
      <point x="512" y="0" type="line"/>
      <point x="445" y="0" type="line"/>
      <point x="287" y="357" type="line"/>
      <point x="257" y="357" type="line"/>
      <point x="242" y="285" type="line"/>
      <point x="184" y="285" type="line"/>
      <point x="199" y="357" type="line"/>
      <point x="173" y="357" type="line"/>
      <point x="97" y="0" type="line"/>
      <point x="40" y="0" type="line"/>
      <point x="189" y="700" type="line"/>
      <point x="246" y="700" type="line"/>
      <point x="185" y="412" type="line"/>
      <point x="211" y="412" type="line"/>
      <point x="226" y="484" type="line"/>
      <point x="284" y="484" type="line"/>
      <point x="269" y="412" type="line"/>
      <point x="290" y="412" type="line"/>
      <point x="544" y="700" type="line"/>
      <point x="609" y="700" type="line"/>
      <point x="335" y="394" type="line"/>
    </contour>
  </outline>
</glyph>
<glyph name="uni04A1" format="2">
  <advance width="503" height="962"/>
  <unicode hex="04A1"/>
  <outline>
    <contour>
      <point x="410" y="118" type="line" smooth="yes"/>
      <point x="434" y="71"/>
      <point x="460" y="48"/>
      <point x="486" y="48" type="curve" smooth="yes"/>
      <point x="490" y="48" type="line"/>
      <point x="480" y="0" type="line"/>
      <point x="478" y="0" type="line"/>
      <point x="407" y="0"/>
      <point x="374" y="58"/>
      <point x="348" y="111" type="curve"/>
      <point x="274" y="254" type="line"/>
      <point x="207" y="198" type="line"/>
      <point x="165" y="0" type="line"/>
      <point x="108" y="0" type="line"/>
      <point x="203" y="449" type="line"/>
      <point x="96" y="451" type="line"/>
      <point x="106" y="500" type="line"/>
      <point x="271" y="500" type="line"/>
      <point x="223" y="274" type="line"/>
      <point x="478" y="500" type="line"/>
      <point x="552" y="500" type="line"/>
      <point x="321" y="296" type="line"/>
    </contour>
  </outline>
</glyph>
<glyph name="uni04A4" format="2">
  <advance width="592" height="962"/>
  <unicode hex="04A4"/>
  <outline>
    <component base="H"/>
    <contour>
      <point x="592" y="700" type="line"/>
      <point x="728" y="700" type="line"/>
      <point x="717" y="651" type="line"/>
      <point x="602" y="648" type="line"/>
      <point x="581" y="648" type="line"/>
    </contour>
  </outline>
</glyph>
<glyph name="uni04B0" format="2">
  <advance width="487" height="962"/>
  <unicode hex="04B0"/>
  <outline>
    <component base="uni04AE"/>
    <contour>
      <point x="148" y="218" type="line"/>
      <point x="427" y="218" type="line"/>
      <point x="415" y="160" type="line"/>
      <point x="136" y="160" type="line"/>
    </contour>
  </outline>
</glyph>
<glyph name="uni04B2" format="2">
  <advance width="559" height="962"/>
  <unicode hex="04B2"/>
  <outline>
    <contour>
      <point x="481" y="57" type="line"/>
      <point x="549" y="57" type="line"/>
      <point x="515" y="-105" type="line"/>
      <point x="469" y="-105" type="line"/>
      <point x="481" y="0" type="line"/>
      <point x="469" y="0" type="line"/>
    </contour>
    <contour>
      <point x="368" y="412" type="line"/>
      <point x="602" y="700" type="line"/>
      <point x="676" y="700" type="line"/>
      <point x="393" y="353" type="line"/>
      <point x="532" y="0" type="line"/>
      <point x="469" y="0" type="line"/>
      <point x="349" y="300" type="line"/>
      <point x="101" y="0" type="line"/>
      <point x="25" y="0" type="line"/>
      <point x="325" y="360" type="line"/>
      <point x="192" y="700" type="line"/>
      <point x="255" y="700" type="line"/>
    </contour>
  </outline>
</glyph>
<glyph name="uni04B3" format="2">
  <advance width="437"/>
  <unicode hex="04B3"/>
  <outline>
    <component base="x" xOffset="1"/>
    <contour>
      <point x="357" y="57" type="line"/>
      <point x="425" y="57" type="line"/>
      <point x="391" y="-105" type="line"/>
      <point x="345" y="-105" type="line"/>
      <point x="357" y="0" type="line"/>
      <point x="345" y="0" type="line"/>
    </contour>
  </outline>
</glyph>
<glyph name="uni04B7" format="2">
  <advance width="473" height="962"/>
  <unicode hex="04B7"/>
  <outline>
    <component base="uni0447"/>
    <contour>
      <point x="390" y="57" type="line"/>
      <point x="473" y="57" type="line"/>
      <point x="439" y="-105" type="line"/>
      <point x="393" y="-105" type="line"/>
      <point x="405" y="0" type="line"/>
      <point x="378" y="0" type="line"/>
    </contour>
  </outline>
</glyph>
<glyph name="uni04BB" format="2">
  <advance width="443" height="962"/>
  <unicode hex="04BB"/>
  <outline>
    <contour>
      <point x="38" y="0" type="line"/>
      <point x="144" y="500" type="line"/>
      <point x="201" y="500" type="line"/>
      <point x="165" y="330" type="line"/>
      <point x="206" y="369"/>
      <point x="265" y="393"/>
      <point x="318" y="393" type="curve" smooth="yes"/>
      <point x="418" y="393"/>
      <point x="481" y="340"/>
      <point x="457" y="226" type="curve" smooth="yes"/>
      <point x="409" y="0" type="line"/>
      <point x="352" y="0" type="line"/>
      <point x="399" y="222" type="line" smooth="yes"/>
      <point x="419" y="315"/>
      <point x="356" y="340"/>
      <point x="294" y="340" type="curve" smooth="yes"/>
      <point x="223" y="340"/>
      <point x="155" y="280"/>
      <point x="140" y="210" type="curve" smooth="yes"/>
      <point x="95" y="0" type="line"/>
    </contour>
  </outline>
</glyph>
<glyph name="uni04D8" format="2">
  <advance width="490"/>
  <unicode hex="04D8"/>
  <outline>
    <contour>
      <point x="413" y="709" type="curve" smooth="yes"/>
      <point x="523" y="709"/>
      <point x="595" y="649"/>
      <point x="565" y="509" type="curve" smooth="yes"/>
      <point x="496" y="185" type="line" smooth="yes"/>
      <point x="469" y="55"/>
      <point x="360" y="-12"/>
      <point x="242" y="-12" type="curve" smooth="yes"/>
      <point x="118" y="-12"/>
      <point x="48" y="63"/>
      <point x="74" y="185" type="curve" smooth="yes"/>
      <point x="106" y="334" type="line"/>
      <point x="474" y="350" type="line"/>
      <point x="509" y="513" type="line" smooth="yes"/>
      <point x="531" y="618"/>
      <point x="482" y="659"/>
      <point x="384" y="659" type="curve" smooth="yes"/>
      <point x="349" y="659"/>
      <point x="313" y="653"/>
      <point x="273" y="638" type="curve"/>
      <point x="264" y="676" type="line"/>
      <point x="310" y="698"/>
      <point x="361" y="709"/>
    </contour>
    <contour>
      <point x="256" y="41" type="curve" smooth="yes"/>
      <point x="344" y="41"/>
      <point x="419" y="90"/>
      <point x="440" y="186" type="curve" smooth="yes"/>
      <point x="463" y="295" type="line"/>
      <point x="151" y="281" type="line"/>
      <point x="131" y="186" type="line" smooth="yes"/>
      <point x="109" y="87"/>
      <point x="164" y="41"/>
    </contour>
  </outline>
</glyph>
<glyph name="uni04F7" format="2">
  <advance width="317" height="962"/>
  <unicode hex="04F7"/>
  <outline>
    <component base="uni0433"/>
    <contour>
      <point x="76" y="57" type="line"/>
      <point x="159" y="57" type="line"/>
      <point x="125" y="-105" type="line"/>
      <point x="79" y="-105" type="line"/>
      <point x="91" y="0" type="line"/>
      <point x="64" y="0" type="line"/>
    </contour>
  </outline>
</glyph>
<glyph name="uni1E9E" format="2">
  <advance width="518"/>
  <unicode hex="1E9E"/>
  <outline>
    <contour>
      <point x="190" y="700" type="line"/>
      <point x="593" y="700" type="line"/>
      <point x="583" y="651" type="line"/>
      <point x="373" y="414" type="line"/>
      <point x="375" y="414" type="line" smooth="yes"/>
      <point x="496" y="414"/>
      <point x="568" y="316"/>
      <point x="542" y="200" type="curve" smooth="yes"/>
      <point x="516" y="82"/>
      <point x="416" y="-12"/>
      <point x="284" y="-12" type="curve" smooth="yes"/>
      <point x="226.473" y="-12"/>
      <point x="177.883" y="11.62"/>
      <point x="147.412" y="50.189" type="curve"/>
      <point x="192.51" y="92.5115" type="line"/>
      <point x="214.744" y="60.1705"/>
      <point x="249.045" y="44"/>
      <point x="296" y="44" type="curve" smooth="yes"/>
      <point x="386" y="44"/>
      <point x="469" y="117"/>
      <point x="486" y="204" type="curve" smooth="yes"/>
      <point x="502" y="282"/>
      <point x="453" y="356"/>
      <point x="370" y="356" type="curve" smooth="yes"/>
      <point x="258" y="356" type="line"/>
      <point x="513" y="647" type="line"/>
      <point x="235" y="647" type="line"/>
      <point x="98" y="0" type="line"/>
      <point x="41" y="0" type="line"/>
    </contour>
  </outline>
</glyph>
<glyph name="endash" format="2">
	<advance width="443"/>
	<unicode hex="2013"/>
	<outline>
		<contour>
			<point x="109.781" y="355.994" type="line"/>
			<point x="122.147" y="414.156" type="line"/>
			<point x="492" y="414" type="line"/>
			<point x="480" y="356" type="line"/>
		</contour>
	</outline>
</glyph>
<glyph name="uni2013" format="2">
  <advance width="500"/>
  <unicode hex="2013"/>
  <outline>
    <contour>
      <point x="129.781" y="355.994" type="line"/>
      <point x="142.147" y="414.156" type="line"/>
      <point x="542.04" y="414.156" type="line"/>
      <point x="529.674" y="355.994" type="line"/>
    </contour>
  </outline>
</glyph>
<glyph name="emdash" format="2">
	<advance width="717"/>
	<unicode hex="2014"/>
	<outline>
		<contour>
			<point x="109.781" y="355.994" type="line"/>
			<point x="122.147" y="414.156" type="line"/>
			<point x="762" y="414" type="line"/>
			<point x="750" y="356" type="line"/>
		</contour>
	</outline>
</glyph>
<glyph name="quoteright" format="2">
  <advance width="129"/>
  <unicode hex="2019"/>
  <outline>
    <contour>
      <point x="148" y="559" type="line"/>
      <point x="175" y="585"/>
      <point x="189" y="611"/>
      <point x="195" y="633" type="curve"/>
      <point x="181" y="637"/>
      <point x="171" y="650"/>
      <point x="175" y="666" type="curve" smooth="yes"/>
      <point x="179" y="685"/>
      <point x="198" y="700"/>
      <point x="215" y="700" type="curve" smooth="yes"/>
      <point x="234" y="700"/>
      <point x="246" y="686"/>
      <point x="242" y="666" type="curve" smooth="yes"/>
      <point x="229" y="605"/>
      <point x="188" y="564"/>
      <point x="163" y="546" type="curve"/>
    </contour>
  </outline>
</glyph>
<glyph name="quotedblleft" format="1">
  <advance width="307" height="962"/>
  <unicode hex="201C"/>
  <outline>
    <contour>
      <point x="426" y="702" type="line"/>
      <point x="399" y="676"/>
      <point x="387" y="649"/>
      <point x="378" y="627" type="curve"/>
      <point x="395" y="623"/>
      <point x="403" y="610"/>
      <point x="400" y="594" type="curve" smooth="yes"/>
      <point x="396" y="575"/>
      <point x="378" y="561"/>
      <point x="359" y="561" type="curve" smooth="yes"/>
      <point x="342" y="561"/>
      <point x="329" y="574"/>
      <point x="333" y="594" type="curve" smooth="yes"/>
      <point x="347" y="658"/>
      <point x="389" y="695"/>
      <point x="412" y="714" type="curve"/>
    </contour>
    <contour>
      <point x="247" y="702" type="line"/>
      <point x="220" y="676"/>
      <point x="206" y="649"/>
      <point x="199" y="627" type="curve"/>
      <point x="215" y="623"/>
      <point x="224" y="610"/>
      <point x="221" y="594" type="curve" smooth="yes"/>
      <point x="217" y="575"/>
      <point x="198" y="561"/>
      <point x="180" y="561" type="curve" smooth="yes"/>
      <point x="162" y="561"/>
      <point x="149" y="574"/>
      <point x="154" y="594" type="curve" smooth="yes"/>
      <point x="167" y="657"/>
      <point x="209" y="696"/>
      <point x="231" y="714" type="curve"/>
    </contour>
  </outline>
</glyph>
<glyph name="bullet" format="1">
  <advance width="343" height="962"/>
  <unicode hex="2022"/>
  <outline>
    <contour>
      <point x="362" y="436" type="curve" smooth="yes"/>
      <point x="384" y="408"/>
      <point x="391" y="375"/>
      <point x="382" y="336" type="curve" smooth="yes"/>
      <point x="375" y="299"/>
      <point x="353" y="264"/>
      <point x="320" y="238" type="curve"/>
      <point x="287" y="210"/>
      <point x="251" y="196"/>
      <point x="211" y="196" type="curve" smooth="yes"/>
      <point x="173" y="196"/>
      <point x="143" y="210"/>
      <point x="121" y="238" type="curve" smooth="yes"/>
      <point x="99" y="264"/>
      <point x="93" y="298"/>
      <point x="101" y="336" type="curve" smooth="yes"/>
      <point x="109" y="376"/>
      <point x="130" y="409"/>
      <point x="163" y="436" type="curve" smooth="yes"/>
      <point x="198" y="464"/>
      <point x="234" y="478"/>
      <point x="271" y="478" type="curve" smooth="yes"/>
      <point x="310" y="478"/>
      <point x="340" y="464"/>
    </contour>
  </outline>
</glyph>
<glyph name="perthousand" format="2">
  <advance width="1058" height="962"/>
  <unicode hex="2030"/>
  <outline>
    <component base="percent"/>
    <contour>
      <point x="937" y="277" type="curve" smooth="yes"/>
      <point x="1019" y="277"/>
      <point x="1068.9" y="212.021"/>
      <point x="1052" y="132" type="curve" smooth="yes"/>
      <point x="1034.9" y="51.0213"/>
      <point x="957" y="-14"/>
      <point x="876" y="-14" type="curve" smooth="yes"/>
      <point x="797" y="-14"/>
      <point x="744.899" y="51.0213"/>
      <point x="762" y="132" type="curve" smooth="yes"/>
      <point x="778.899" y="212.021"/>
      <point x="859" y="277"/>
    </contour>
    <contour>
      <point x="931" y="227" type="curve" smooth="yes"/>
      <point x="880" y="227"/>
      <point x="828.581" y="185.878"/>
      <point x="817" y="132" type="curve" smooth="yes"/>
      <point x="805.58" y="78.872"/>
      <point x="833" y="37"/>
      <point x="884" y="37" type="curve" smooth="yes"/>
      <point x="937" y="37"/>
      <point x="987.625" y="79.0793"/>
      <point x="999" y="132" type="curve" smooth="yes"/>
      <point x="1010.63" y="186.082"/>
      <point x="985" y="227"/>
    </contour>
  </outline>
</glyph>
<glyph name="guilsinglright" format="2">
  <advance width="284"/>
  <unicode hex="203A"/>
  <outline>
    <contour>
      <point x="237" y="267" type="line"/>
      <point x="120" y="417" type="line"/>
      <point x="165" y="455" type="line"/>
      <point x="312" y="267" type="line"/>
      <point x="85" y="79" type="line"/>
      <point x="57" y="114" type="line"/>
    </contour>
  </outline>
</glyph>
<glyph name="fraction" format="2">
  <advance width="416"/>
  <unicode hex="2044"/>
  <outline>
    <contour>
      <point x="-6" y="-114" type="line"/>
      <point x="512" y="818" type="line"/>
      <point x="574" y="818" type="line"/>
      <point x="51" y="-114" type="line"/>
    </contour>
  </outline>
</glyph>
<glyph name="Euro" format="1">
  <advance width="423" height="962"/>
  <unicode hex="20AC"/>
  <outline>
    <component base="C"/>
    <contour>
      <point x="84" y="377" type="line"/>
      <point x="96" y="432" type="line"/>
      <point x="446" y="432" type="line"/>
      <point x="434" y="377" type="line"/>
    </contour>
    <contour>
      <point x="62" y="273" type="line"/>
      <point x="74" y="328" type="line"/>
      <point x="424" y="328" type="line"/>
      <point x="412" y="273" type="line"/>
    </contour>
  </outline>
</glyph>
<glyph name="uni20B8" format="2">
  <advance width="409"/>
  <unicode hex="20B8"/>
  <outline>
    <contour>
      <point x="347" y="556" type="line"/>
      <point x="229" y="0" type="line"/>
      <point x="174" y="0" type="line"/>
      <point x="292" y="556" type="line"/>
      <point x="121" y="556" type="line"/>
      <point x="132" y="606" type="line"/>
      <point x="534" y="606" type="line"/>
      <point x="523" y="556" type="line"/>
    </contour>
    <contour>
      <point x="141" y="650" type="line"/>
      <point x="152" y="700" type="line"/>
      <point x="555" y="700" type="line"/>
      <point x="544" y="650" type="line"/>
    </contour>
  </outline>
</glyph>
<glyph name="trademark" format="2">
  <advance width="429" height="962"/>
  <unicode hex="2122"/>
  <outline>
    <contour>
      <point x="269" y="666" type="line"/>
      <point x="237" y="514" type="line"/>
      <point x="204" y="514" type="line"/>
      <point x="236" y="666" type="line"/>
      <point x="165" y="666" type="line"/>
      <point x="172" y="700" type="line"/>
      <point x="383" y="700" type="line"/>
      <point x="413" y="563" type="line"/>
      <point x="501" y="700" type="line"/>
      <point x="543" y="700" type="line"/>
      <point x="504" y="514" type="line"/>
      <point x="473" y="514" type="line"/>
      <point x="502" y="653" type="line"/>
      <point x="413" y="514" type="line"/>
      <point x="392" y="514" type="line"/>
      <point x="364" y="653" type="line"/>
      <point x="334" y="514" type="line"/>
      <point x="300" y="514" type="line"/>
      <point x="332" y="666" type="line"/>
    </contour>
  </outline>
</glyph>
<glyph name="y_lower_alt" format="2">
  <advance width="486"/>
  <unicode hex="9998"/>
  <outline>
    <contour>
      <point x="72" y="-209" type="line"/>
      <point x="216" y="21" type="line"/>
      <point x="124" y="500" type="line"/>
      <point x="184" y="500" type="line"/>
      <point x="258" y="88" type="line"/>
      <point x="515" y="500" type="line"/>
      <point x="579" y="500" type="line"/>
      <point x="128" y="-209" type="line"/>
    </contour>
  </outline>
</glyph>
<glyph name="commaaccent" format="1">
  <advance width="267" height="962"/>
  <unicode hex="F6C3"/>
  <outline>
    <contour>
      <point x="57" y="-196" type="line"/>
      <point x="84" y="-169"/>
      <point x="97" y="-142"/>
      <point x="104" y="-120" type="curve"/>
      <point x="88" y="-118"/>
      <point x="79" y="-103"/>
      <point x="83" y="-87" type="curve" smooth="yes"/>
      <point x="87" y="-69"/>
      <point x="105" y="-54"/>
      <point x="123" y="-54" type="curve" smooth="yes"/>
      <point x="142" y="-54"/>
      <point x="154" y="-67"/>
      <point x="150" y="-87" type="curve" smooth="yes"/>
      <point x="136" y="-150"/>
      <point x="95" y="-191"/>
      <point x="71" y="-208" type="curve"/>
    </contour>
  </outline>
</glyph>
<glyph name="fl" format="2">
  <advance width="370"/>
  <unicode hex="FB02"/>
  <outline>
    <contour>
      <point x="403" y="623" type="line"/>
      <point x="374" y="642"/>
      <point x="349" y="648"/>
      <point x="328" y="648" type="curve" smooth="yes"/>
      <point x="280" y="648"/>
      <point x="229" y="620"/>
      <point x="214" y="550" type="curve" smooth="yes"/>
      <point x="204" y="500" type="line"/>
      <point x="319" y="500" type="line"/>
      <point x="284" y="447" type="line"/>
      <point x="193" y="447" type="line"/>
      <point x="98" y="0" type="line"/>
      <point x="41" y="0" type="line"/>
      <point x="161" y="562" type="line" smooth="yes"/>
      <point x="180" y="649"/>
      <point x="259" y="707"/>
      <point x="343" y="707" type="curve" smooth="yes"/>
      <point x="387" y="707"/>
      <point x="432" y="693"/>
      <point x="468" y="658" type="curve"/>
      <point x="328" y="0" type="line"/>
      <point x="271" y="0" type="line"/>
    </contour>
  </outline>
</glyph>
<glyph name="ffl" format="2">
  <advance width="598"/>
  <unicode hex="FB04"/>
  <outline>
    <contour>
      <point x="634" y="629" type="line"/>
      <point x="585" y="656"/>
      <point x="545" y="653"/>
      <point x="515" y="638" type="curve" smooth="yes"/>
      <point x="478" y="620"/>
      <point x="455" y="593"/>
      <point x="447" y="557" type="curve" smooth="yes"/>
      <point x="435" y="500" type="line"/>
      <point x="550" y="500" type="line"/>
      <point x="515" y="447" type="line"/>
      <point x="424" y="447" type="line"/>
      <point x="329" y="0" type="line"/>
      <point x="269" y="0" type="line"/>
      <point x="388" y="561" type="line" smooth="yes"/>
      <point x="393" y="582"/>
      <point x="403" y="601"/>
      <point x="416" y="620" type="curve"/>
      <point x="390" y="639"/>
      <point x="365" y="649"/>
      <point x="340" y="652" type="curve" smooth="yes"/>
      <point x="280" y="659"/>
      <point x="229" y="629"/>
      <point x="212" y="550" type="curve" smooth="yes"/>
      <point x="202" y="500" type="line"/>
      <point x="316" y="500" type="line"/>
      <point x="282" y="447" type="line"/>
      <point x="191" y="447" type="line"/>
      <point x="96" y="0" type="line"/>
      <point x="39" y="0" type="line"/>
      <point x="159" y="561" type="line" smooth="yes"/>
      <point x="182" y="671"/>
      <point x="282" y="706"/>
      <point x="332" y="706" type="curve" smooth="yes"/>
      <point x="380" y="706"/>
      <point x="422" y="692"/>
      <point x="455" y="664" type="curve"/>
      <point x="488" y="691"/>
      <point x="530" y="705"/>
      <point x="578" y="705" type="curve" smooth="yes"/>
      <point x="626" y="705"/>
      <point x="663" y="693"/>
      <point x="697" y="666" type="curve"/>
      <point x="556" y="0" type="line"/>
      <point x="500" y="0" type="line"/>
    </contour>
  </outline>
</glyph>
<glyph name="caroncomb" format="1">
  <advance width="267" height="962"/>
  <outline>
    <contour>
      <point x="416" y="717" type="line"/>
      <point x="257" y="589" type="line"/>
      <point x="155" y="715" type="line"/>
      <point x="199" y="750" type="line"/>
      <point x="269" y="663" type="line"/>
      <point x="384" y="755" type="line"/>
    </contour>
  </outline>
</glyph>
<glyph name="commaturnedabove" format="2">
  <advance width="267" height="962"/>
  <outline>
    <contour>
      <point x="321" y="718" type="line"/>
      <point x="295" y="693"/>
      <point x="283" y="665"/>
      <point x="275" y="643" type="curve"/>
      <point x="290" y="641"/>
      <point x="299" y="628"/>
      <point x="295" y="610" type="curve" smooth="yes"/>
      <point x="291" y="593"/>
      <point x="274" y="577"/>
      <point x="255" y="577" type="curve" smooth="yes"/>
      <point x="237" y="577"/>
      <point x="224" y="590"/>
      <point x="228" y="610" type="curve" smooth="yes"/>
      <point x="241" y="672"/>
      <point x="284" y="714"/>
      <point x="307" y="730" type="curve"/>
    </contour>
  </outline>
</glyph>
<glyph name="dieresistonoscomb" format="1">
  <advance width="267" height="962"/>
  <outline>
    <contour>
      <point x="234" y="692" type="curve" smooth="yes"/>
      <point x="230" y="674"/>
      <point x="213" y="659"/>
      <point x="194" y="659" type="curve" smooth="yes"/>
      <point x="176" y="659"/>
      <point x="163" y="674"/>
      <point x="167" y="692" type="curve" smooth="yes"/>
      <point x="171" y="711"/>
      <point x="190" y="725"/>
      <point x="208" y="725" type="curve" smooth="yes"/>
      <point x="227" y="725"/>
      <point x="238" y="711"/>
    </contour>
    <contour>
      <point x="393" y="692" type="curve" smooth="yes"/>
      <point x="389" y="674"/>
      <point x="371" y="659"/>
      <point x="352" y="659" type="curve" smooth="yes"/>
      <point x="335" y="659"/>
      <point x="322" y="674"/>
      <point x="326" y="692" type="curve" smooth="yes"/>
      <point x="330" y="711"/>
      <point x="349" y="725"/>
      <point x="366" y="725" type="curve" smooth="yes"/>
      <point x="385" y="725"/>
      <point x="397" y="711"/>
    </contour>
    <contour>
      <point x="371" y="816" type="curve" smooth="yes"/>
      <point x="301" y="736" type="line"/>
      <point x="265" y="736" type="line"/>
      <point x="326" y="843" type="line" smooth="yes"/>
      <point x="336" y="861"/>
      <point x="359" y="873"/>
      <point x="374" y="863" type="curve" smooth="yes"/>
      <point x="391" y="853"/>
      <point x="385" y="831"/>
    </contour>
  </outline>
</glyph>
<glyph name="ft" format="2">
  <advance width="471" height="962"/>
  <outline>
    <contour>
      <point x="353" y="133" type="line" smooth="yes"/>
      <point x="342" y="79"/>
      <point x="357" y="45"/>
      <point x="398" y="30" type="curve"/>
      <point x="372" y="-13" type="line"/>
      <point x="302" y="9"/>
      <point x="282" y="54"/>
      <point x="298" y="133" type="curve"/>
      <point x="402" y="623" type="line"/>
      <point x="376" y="645"/>
      <point x="348" y="648"/>
      <point x="327" y="648" type="curve" smooth="yes"/>
      <point x="278" y="648"/>
      <point x="229" y="620"/>
      <point x="214" y="550" type="curve" smooth="yes"/>
      <point x="204" y="500" type="line"/>
      <point x="317" y="500" type="line"/>
      <point x="282" y="447" type="line"/>
      <point x="193" y="447" type="line"/>
      <point x="98" y="0" type="line"/>
      <point x="41" y="0" type="line"/>
      <point x="161" y="562" type="line" smooth="yes"/>
      <point x="180" y="649"/>
      <point x="258" y="706"/>
      <point x="342" y="706" type="curve" smooth="yes"/>
      <point x="386" y="706"/>
      <point x="430" y="691"/>
      <point x="466" y="656" type="curve"/>
      <point x="432" y="500" type="line"/>
      <point x="552" y="500" type="line"/>
      <point x="518" y="447" type="line"/>
      <point x="420" y="447" type="line"/>
    </contour>
  </outline>
</glyph>
<glyph name="gamma_gamma" format="2">
  <advance width="869"/>
  <outline>
    <component base="gamma" xOffset="359.5"/>
    <contour>
      <point x="542" y="500" type="line"/>
      <point x="252" y="-58" type="line" smooth="yes"/>
      <point x="229" y="-102"/>
      <point x="194" y="-196"/>
      <point x="73" y="-199" type="curve"/>
      <point x="72" y="-156" type="line"/>
      <point x="128" y="-154"/>
      <point x="162" y="-123"/>
      <point x="185" y="-79" type="curve" smooth="yes"/>
      <point x="222" y="-6" type="line"/>
      <point x="170" y="17"/>
      <point x="161" y="70"/>
      <point x="156" y="129" type="curve" smooth="yes"/>
      <point x="127" y="500" type="line"/>
      <point x="184" y="500" type="line"/>
      <point x="213" y="140" type="line" smooth="yes"/>
      <point x="219" y="75"/>
      <point x="229" y="55"/>
      <point x="249" y="43" type="curve"/>
      <point x="485" y="500" type="line"/>
    </contour>
  </outline>
</glyph>
<glyph name="gamma_kappa" format="2">
  <advance width="884" height="962"/>
  <outline>
    <component base="kappa" xOffset="449.5"/>
    <contour>
      <point x="598" y="469" type="line"/>
      <point x="524" y="475"/>
      <point x="498" y="418"/>
      <point x="486" y="395" type="curve" smooth="yes"/>
      <point x="252" y="-58" type="line" smooth="yes"/>
      <point x="230" y="-102"/>
      <point x="194" y="-196"/>
      <point x="73" y="-199" type="curve"/>
      <point x="72" y="-156" type="line"/>
      <point x="128" y="-154"/>
      <point x="162" y="-123"/>
      <point x="185" y="-79" type="curve" smooth="yes"/>
      <point x="222" y="-6" type="line"/>
      <point x="170" y="17"/>
      <point x="161" y="70"/>
      <point x="156" y="129" type="curve" smooth="yes"/>
      <point x="127" y="500" type="line"/>
      <point x="184" y="500" type="line"/>
      <point x="213" y="140" type="line" smooth="yes"/>
      <point x="219" y="75"/>
      <point x="229" y="55"/>
      <point x="249" y="43" type="curve"/>
      <point x="438" y="407" type="line" smooth="yes"/>
      <point x="475" y="479"/>
      <point x="515" y="521"/>
      <point x="597" y="512" type="curve"/>
    </contour>
  </outline>
</glyph>
<glyph name="lambda_lambda" format="1">
  <advance width="867" height="962"/>
  <outline>
    <component base="lambda" xOffset="363.5"/>
    <contour>
      <point x="435" y="-1" type="line"/>
      <point x="380" y="-1" type="line"/>
      <point x="340" y="456" type="line"/>
      <point x="315" y="443"/>
      <point x="294" y="423"/>
      <point x="262" y="360" type="curve" smooth="yes"/>
      <point x="80" y="-1" type="line"/>
      <point x="23" y="-1" type="line"/>
      <point x="210" y="371" type="line" smooth="yes"/>
      <point x="240" y="430"/>
      <point x="274" y="484"/>
      <point x="335" y="506" type="curve"/>
      <point x="328" y="578" type="line" smooth="yes"/>
      <point x="324" y="621"/>
      <point x="300" y="654"/>
      <point x="246" y="654" type="curve"/>
      <point x="265" y="697" type="line"/>
      <point x="386" y="695"/>
      <point x="382" y="600"/>
      <point x="386" y="557" type="curve" smooth="yes"/>
    </contour>
  </outline>
</glyph>
